<svg width="62" height="34" viewBox="0 0 62 34" fill="none" xmlns="http://www.w3.org/2000/svg">
<g clip-path="url(#clip0_1_235)">
<path d="M61.0707 29.6438C61.8343 30.712 61.6814 32.0855 60.7647 32.8486C59.6955 33.6117 58.1678 33.459 57.4039 32.5433L52.0569 25.6758L46.8627 32.3907C46.0988 33.459 44.5711 33.459 43.5017 32.696C42.4323 31.9329 42.2795 30.5594 43.0434 29.4912L49.1543 21.5554L43.0434 13.6196C42.2795 12.5514 42.5851 11.0253 43.5017 10.2622C44.5711 9.49913 46.0988 9.80436 46.8627 10.7201L52.0569 17.5875L57.4039 11.0253C58.1678 9.95698 59.5428 9.80436 60.7647 10.5674C61.8344 11.3305 61.8343 12.8566 61.0707 13.9248L55.1124 21.708L61.0707 29.6438ZM33.266 28.7281C29.2939 28.7281 26.0857 25.6758 26.0857 21.708C26.0857 17.8927 29.2939 14.6879 33.266 14.6879C37.2381 14.6879 40.4463 17.8927 40.4463 21.708C40.2935 25.6758 37.0853 28.7281 33.266 28.7281ZM12.1834 28.7281C8.21133 28.7281 5.00314 25.6758 5.00314 21.708C5.00314 17.8927 8.21133 14.6879 12.1834 14.6879C16.1555 14.6879 19.3637 17.8927 19.3637 21.708C19.3637 25.6758 16.1555 28.7281 12.1834 28.7281ZM33.266 10.1096C28.8356 10.1096 24.8635 12.5514 22.8775 16.214C20.8915 12.5514 16.9194 10.1096 12.3362 10.1096C9.5863 10.1096 7.14194 11.0253 5.15591 12.3988V2.63169C5.15591 1.4108 4.08651 0.342529 2.86434 0.342529C1.48939 0.342529 0.419983 1.4108 0.419983 2.63169V21.8606C0.572755 28.2702 5.76701 33.3064 12.1834 33.3064C16.7666 33.3064 20.7387 30.712 22.7247 27.0494C24.7107 30.712 28.6828 33.3064 33.1132 33.3064C39.6824 33.3064 45.0294 28.1176 45.0294 21.5554C45.1822 15.2984 39.8352 10.1096 33.266 10.1096Z" fill="#0061D5"/>
</g>
<defs>
<clipPath id="clip0_1_235">
<rect width="61.19" height="32.9946" fill="white" transform="translate(0.419983 0.342529)"/>
</clipPath>
</defs>
</svg>
