<svg width="134" height="34" viewBox="0 0 134 34" fill="none" xmlns="http://www.w3.org/2000/svg">
<g clip-path="url(#clip0_1_220)">
<path d="M46.5895 21.532C46.5895 22.0807 46.1703 22.5317 45.5734 22.5317C44.9929 22.5317 44.5737 22.0796 44.5737 21.532V12.0007C44.5737 11.452 44.9929 11.001 45.5899 11.001C46.1703 11.001 46.5895 11.4531 46.5895 12.0007V21.532Z" fill="#242729"/>
<path d="M59.6205 12.0006V20.7101C59.6205 21.8875 58.9916 22.5491 57.992 22.5491H57.9119C56.9604 22.5491 56.5084 22.0005 56.1056 21.1939L54.0734 17.2425L52.2672 13.1626L52.3155 17.1141L52.3319 21.5166C52.3319 22.0652 51.9128 22.5162 51.3158 22.5162C50.7353 22.5162 50.3161 22.0642 50.3161 21.5166V12.8071C50.3161 11.7263 50.9449 10.968 52.0422 10.968H52.1223C53.1385 10.968 53.5576 11.5167 53.9614 12.3232L55.9607 16.2428L57.6704 20.0494L57.6221 16.4041L57.6057 12.0016C57.6057 11.453 58.0249 11.002 58.6218 11.002C59.2012 11.0009 59.6205 11.452 59.6205 12.0006Z" fill="#242729"/>
<path d="M67.7009 21.5166C67.7009 22.0652 67.2817 22.5163 66.6848 22.5163C66.1043 22.5163 65.6851 22.0642 65.6851 21.5166V12.8883H63.1854C62.6696 12.8883 62.2505 12.501 62.2505 11.9369C62.2505 11.3883 62.6696 11.002 63.1854 11.002H70.2006C70.7164 11.002 71.1356 11.3892 71.1356 11.9534C71.1356 12.5019 70.7164 12.8883 70.2006 12.8883H67.7009V21.5166Z" fill="#242729"/>
<path d="M73.7651 21.1939V12.2431C73.7651 11.4047 74.2327 10.9372 75.0874 10.9691H80.8934C81.4092 10.9691 81.8285 11.3718 81.8285 11.9205C81.8285 12.4691 81.4092 12.8554 80.8934 12.8554H75.7645V15.6295H80.2965C80.7968 15.6295 81.1999 16.0003 81.1999 16.5326C81.1999 17.0647 80.7968 17.4357 80.2965 17.4357H75.7645V20.6289H80.8934C81.4092 20.6289 81.8285 21.0316 81.8285 21.5803C81.8285 22.1289 81.4092 22.5153 80.8934 22.5153H75.0391C74.2008 22.5162 73.7333 22.0488 73.7651 21.1939Z" fill="#242729"/>
<path d="M93.2799 21.2094C93.5543 21.6768 93.3765 22.2738 92.8123 22.5645C92.2642 22.8389 91.667 22.6293 91.3933 22.1618L89.1518 18.0172H87.023L87.0391 21.533C87.0391 22.0817 86.6206 22.5327 86.0234 22.5327C85.4431 22.5327 85.0237 22.0806 85.0237 21.533V12.2431C85.0237 11.4047 85.4914 10.9372 86.3461 10.9691H90.1683C92.797 10.9691 93.8932 12.6787 93.8932 14.4202C93.8932 16.0815 92.9257 17.3072 91.2645 17.6298L93.2799 21.2094ZM87.0222 16.1935H90.215C91.2959 16.1935 91.8601 15.5 91.8601 14.5157C91.8601 13.5315 91.2629 12.8544 90.1989 12.8544H87.0222V16.1935Z" fill="#242729"/>
<path d="M98.0534 21.6614C96.8438 20.5806 96.2948 18.8874 96.2948 16.7586C96.2948 14.6133 96.8277 12.9365 98.0212 11.8721C98.7633 11.2269 99.7629 10.7913 101.214 10.7913C102.488 10.7913 103.472 11.0821 104.215 11.7108C104.86 12.2265 105.327 12.953 105.601 13.9691C105.746 14.5013 105.375 15.0335 104.763 15.1465C104.182 15.2431 103.716 14.8722 103.538 14.34C103.345 13.8243 103.085 13.4533 102.78 13.1944C102.36 12.8235 101.844 12.6622 101.166 12.6622C100.441 12.6622 99.8112 12.8718 99.3436 13.3392C98.6667 14.0164 98.3754 15.2266 98.3754 16.7586C98.3754 18.275 98.6498 19.4843 99.3597 20.1614C99.8273 20.6288 100.441 20.8384 101.15 20.8384C101.892 20.8384 102.456 20.6453 102.924 20.2097C103.166 19.9836 103.376 19.6939 103.521 19.3548C103.731 18.8545 104.166 18.4836 104.73 18.613C105.295 18.7425 105.65 19.2901 105.472 19.8223C105.181 20.709 104.682 21.419 104.005 21.9028C103.263 22.435 102.343 22.7094 101.183 22.7094C99.6994 22.7094 98.7633 22.2737 98.0534 21.6614Z" fill="#242729"/>
<path d="M107.875 16.7586C107.875 13.1462 109.358 10.7913 112.859 10.7913C116.327 10.7913 117.827 13.0814 117.827 16.7586C117.827 20.484 116.31 22.7258 112.859 22.7258C109.343 22.7258 107.875 20.484 107.875 16.7586ZM115.762 16.7586C115.762 14.0164 114.762 12.6786 112.843 12.6786C110.955 12.6786 109.956 14.0174 109.956 16.7586C109.956 19.5008 110.924 20.8384 112.843 20.8384C114.745 20.8384 115.762 19.4997 115.762 16.7586Z" fill="#242729"/>
<path d="M133.47 21.5166C133.47 22.0652 133.051 22.5163 132.454 22.5163C131.874 22.5163 131.455 22.0642 131.455 21.5166V17.1942L131.503 12.9849L130.099 17.2589L128.68 21.4683C128.439 22.2101 127.938 22.5008 127.31 22.5008C126.648 22.5008 126.164 22.1947 125.906 21.4528L124.455 17.26L123.116 13.0506L123.164 17.1953V21.5176C123.164 22.0662 122.745 22.5172 122.148 22.5172C121.568 22.5172 121.149 22.0652 121.149 21.5176V12.8893C121.149 11.6954 121.793 11.002 122.922 11.002C123.987 11.002 124.584 11.566 124.923 12.5985L126.406 17.0011L127.309 20.0011L128.228 17.0011L129.712 12.5985C130.051 11.566 130.631 11.002 131.696 11.002C132.825 11.002 133.454 11.679 133.454 12.8893L133.47 21.5166Z" fill="#242729"/>
<path d="M29.4378 0.340332H4.77967C2.51009 0.340332 0.669983 2.18044 0.669983 4.45002V29.1081C0.669983 31.3777 2.51009 33.2178 4.77967 33.2178H29.4378C31.7074 33.2178 33.5475 31.3777 33.5475 29.1081V4.45002C33.5475 2.18044 31.7074 0.340332 29.4378 0.340332ZM21.4917 6.36821C21.4917 5.76306 21.9828 5.27195 22.5879 5.27195C23.1931 5.27195 23.6842 5.76306 23.6842 6.36821V21.01C23.6842 21.6151 23.1931 22.1063 22.5879 22.1063C21.9828 22.1063 21.4917 21.6151 21.4917 21.01V6.36821ZM16.0125 5.81341C16.0125 5.20826 16.5036 4.71715 17.1087 4.71715C17.7139 4.71715 18.205 5.20826 18.205 5.81341V21.7046C18.205 22.3097 17.7139 22.8008 17.1087 22.8008C16.5036 22.8008 16.0125 22.3097 16.0125 21.7046V5.81341ZM10.5332 6.36821C10.5332 5.76306 11.0244 5.27195 11.6294 5.27195C12.2346 5.27195 12.7247 5.76306 12.7247 6.36821V21.01C12.7247 21.6151 12.2346 22.1063 11.6294 22.1063C11.0244 22.1063 10.5332 21.6151 10.5332 21.01V6.36821ZM5.05398 8.55969C5.05398 7.95455 5.54406 7.46344 6.14922 7.46344C6.75437 7.46344 7.24548 7.95455 7.24548 8.55969V18.4167C7.24548 19.0219 6.75437 19.513 6.14922 19.513C5.54406 19.513 5.05398 19.0219 5.05398 18.4167V8.55969ZM28.7812 25.2758C28.6128 25.4217 24.5524 28.8276 17.1087 28.8276C9.66505 28.8276 5.60674 25.4217 5.43619 25.2758C4.97693 24.8823 4.92248 24.1909 5.31701 23.7306C5.70949 23.2724 6.39991 23.2179 6.85917 23.6104C6.92287 23.6638 10.5486 26.6362 17.1077 26.6362C23.7489 26.6362 27.3182 23.6422 27.3531 23.6124C27.8114 23.2179 28.5049 23.2714 28.8974 23.7306C29.2939 24.1909 29.2405 24.8823 28.7812 25.2758ZM29.1635 18.4167C29.1635 19.0219 28.6724 19.513 28.0672 19.513C27.462 19.513 26.972 19.0219 26.972 18.4167V8.55969C26.972 7.95455 27.462 7.46344 28.0672 7.46344C28.6724 7.46344 29.1635 7.95455 29.1635 8.55969V18.4167Z" fill="#276BF2"/>
</g>
<defs>
<clipPath id="clip0_1_220">
<rect width="132.8" height="32.9988" fill="white" transform="translate(0.669983 0.340332)"/>
</clipPath>
</defs>
</svg>
