<svg width="148" height="34" viewBox="0 0 148 34" fill="none" xmlns="http://www.w3.org/2000/svg">
<g clip-path="url(#clip0_1_217)">
<path d="M0.119995 26.9279H16.1478V22.1195H6.01257V17.6412H14.5922V12.6914H6.01257V8.44876H16.1478V3.64042H0.119995V26.9279ZM47.7791 8.44876C45.3278 8.44876 43.6779 9.15586 42.2637 11.1358H42.1694L41.4623 8.92016H37.2196V33.1504H42.7351V25.5136H42.8294C43.8665 26.6922 45.4221 27.2578 47.5434 27.2578C52.4932 27.2578 56.0287 23.1566 56.0287 18.0654V17.3583C56.0287 11.89 51.9275 8.44876 47.7791 8.44876ZM46.3649 22.8266C43.7722 22.8266 42.5937 20.7053 42.5937 17.8769C42.5937 15.1899 43.7722 13.0685 46.3649 13.0685C48.9576 13.0685 50.1361 15.2841 50.1361 18.0183C50.1361 20.7053 48.8634 22.8266 46.3649 22.8266ZM74.9792 17.4055C74.9792 11.4186 70.7366 8.44876 66.1639 8.44876C60.9785 8.44876 56.9715 12.0786 56.9715 17.7354V18.3011C56.9715 24.0523 61.3085 27.4935 66.3996 27.4935C70.5009 27.4935 74.1778 25.5136 74.9792 21.3653H69.6995C69.1338 22.7795 67.9553 23.2509 66.5411 23.2509C64.184 23.2509 62.9112 21.601 62.6755 19.3854H74.9321C74.8378 18.914 74.9792 18.1126 74.9792 17.4055ZM62.7227 15.7555C62.9584 13.8699 64.1369 12.4557 66.2582 12.4557C68.1438 12.4557 69.4166 13.7285 69.4166 15.7555H62.7227ZM86.623 8.44876C84.4073 8.44876 82.616 9.25015 81.3432 11.2772H81.2018L80.4947 8.92016H76.1577V26.8336H81.8146V16.4627C81.8146 14.247 82.8517 13.0685 84.7373 13.0685C86.2458 13.0685 87.4243 14.0113 87.4243 16.4627V26.8336H93.0812V14.8127C93.0812 11.4186 91.1013 8.44876 86.623 8.44876ZM101.567 15.4256C100.624 15.1899 99.9166 14.8599 99.9166 13.7756C99.9166 12.9743 100.482 12.3614 101.802 12.3614C103.216 12.3614 103.924 13.0685 103.924 14.247H108.968V13.9171C108.968 10.1458 105.573 8.63732 101.661 8.63732C98.2667 8.63732 94.354 10.0515 94.354 14.2942V14.4827C94.354 15.7555 94.8254 16.9341 95.6268 17.7826C97.371 19.5268 100.105 19.7625 101.991 20.2339C103.499 20.5639 103.876 21.271 103.876 22.1195C103.876 23.1566 103.075 23.7694 101.755 23.7694C100.247 23.7694 99.3038 22.9681 99.1624 21.1767H94.1183V21.5067C94.354 25.8436 97.6539 27.4935 101.755 27.4935C105.385 27.4935 109.392 25.8436 109.392 21.601V21.1296C109.392 19.8568 108.92 18.6783 108.213 17.8297C106.658 15.9912 103.829 15.7555 101.567 15.4256ZM116.274 9.06158H110.618V26.975H116.274V9.06158ZM36.0411 9.06158H29.7714L26.8487 13.5399L23.7846 9.06158H17.4206L23.4074 17.4055L16.6192 26.9279H22.8418L26.613 21.5067L30.3842 26.9279H36.8425L29.9128 17.3112L36.0411 9.06158ZM113.446 0.340576C111.56 0.340576 110.052 1.84907 110.052 3.7347C110.052 5.62032 111.56 7.12882 113.446 7.12882C115.332 7.12882 116.84 5.62032 116.84 3.7347C116.887 1.84907 115.332 0.340576 113.446 0.340576ZM126.41 9.06158V8.4959C126.41 6.9874 127.447 5.43176 129.097 5.43176H130.747V0.434857H128.767C123.958 0.529138 120.753 4.2061 120.753 8.77874V9.01444H117.453V13.2571H120.753V26.7864H126.41V13.3042H130.039L134.753 25.6551L131.454 33.2918H137.346L147.34 9.06158H141.447L137.582 19.7625L134.046 9.06158H126.41Z" fill="#0B1B34"/>
</g>
<defs>
<clipPath id="clip0_1_217">
<rect width="147.55" height="32.9984" fill="white" transform="translate(0.119995 0.340576)"/>
</clipPath>
</defs>
</svg>
