<svg width="146" height="34" viewBox="0 0 146 34" fill="none" xmlns="http://www.w3.org/2000/svg">
<g clip-path="url(#clip0_1_232)">
<path fill-rule="evenodd" clip-rule="evenodd" d="M78.0411 32.1686L81.591 26.5615C75.379 23.1732 71.1837 19.7848 69.2473 18.0501C73.2006 15.4281 77.3553 12.2415 81.4698 8.97404L77.4361 3.04428C74.693 5.70664 70.0542 9.49836 66.7061 12.1204C66.7866 7.36031 66.9885 3.56859 66.9885 0.422074L60.7764 0.341553C60.7764 8.2479 60.5342 18.4939 60.5342 32.2493L66.7465 32.0878C66.7465 29.8289 66.6254 27.0859 66.6657 23.6572C68.6423 25.5531 74.5721 29.9904 78.0411 32.1686ZM38.1867 33.2578C36.7343 25.4723 34.5562 12.1204 32.983 0.543165C30.3206 0.381917 26.4078 0.462645 23.7454 0.664257C22.5354 10.3454 20.1149 22.931 18.1384 32.33L24.5925 32.3704L25.722 26.4808L30.5222 26.1984L31.5711 33.3383L38.1867 33.2578ZM119.388 32.0878C124.995 32.0878 127.577 27.5298 127.577 17.1627C127.577 8.28827 125.802 1.10785 119.228 1.10785C114.184 1.10785 110.998 5.26284 110.998 16.2348C110.998 26.3195 113.297 32.0878 119.388 32.0878ZM144.841 32.7335L138.63 16.2348L144.923 1.75346L140.849 1.47091L136.492 12.6853L132.7 1.22894L128.544 1.39039L134.112 16.2751L128.182 31.8459L132.175 32.0878L136.29 19.7848L140.566 32.8947L144.841 32.7335ZM59.1626 30.0709C56.4602 26.4003 54.6447 23.496 52.3859 18.8974C55.0885 17.2434 56.6214 14.3389 56.6214 10.7084C56.6214 6.39241 54.7255 1.2693 45.6494 1.2693C43.3903 1.2693 41.2524 1.39039 39.6791 1.592C40.0017 11.3942 40.2439 21.7613 40.2439 32.1686L46.3753 32.0878C46.3753 28.1348 46.1738 24.1815 46.093 20.3494H46.9804C48.8764 24.9481 51.5388 30.0307 53.2328 32.814L59.1626 30.0709ZM17.7754 23.4152C17.7754 19.5829 15.9199 17.1627 13.3784 15.9929C15.6373 14.6215 16.9283 12.08 16.9283 9.33711C16.9283 4.45598 13.9028 1.35003 7.40843 1.35003C5.71398 1.35003 2.08349 1.592 0.469971 1.79362C0.994494 10.8295 1.35755 22.8102 1.47864 32.2493C2.48691 32.2897 3.81812 32.33 5.9158 32.33C13.2171 32.33 17.7754 30.1519 17.7754 23.4152ZM108.698 24.1413C108.698 20.9545 107.004 18.3729 103.696 17.082C106.561 15.6299 107.892 12.8868 107.892 9.45799C107.892 3.04428 102.809 1.22894 93.9346 1.79362C93.9749 11.8784 93.8943 22.0841 93.491 32.33C103.333 33.3383 108.698 30.9181 108.698 24.1413ZM119.509 28.74C116.443 28.74 114.87 24.3026 114.87 16.0332C114.87 8.65134 116.403 4.41561 119.106 4.41561C122.253 4.41561 123.745 9.29674 123.745 17.3643C123.745 24.8269 122.414 28.74 119.509 28.74ZM104.019 9.74033C104.019 13.4112 102.204 15.3072 97.6055 15.4684C97.6859 11.9591 97.807 8.44951 97.8877 4.98051C102.124 4.94013 104.019 6.51329 104.019 9.74033ZM7.52931 6.51329C9.86897 6.51329 10.958 7.92521 10.958 9.90179C10.958 12.4431 9.26392 13.6936 6.68229 13.8953C6.60157 11.3137 6.52084 8.81258 6.44011 6.59402C6.80318 6.55366 7.16624 6.51329 7.52931 6.51329ZM50.6916 10.5876C50.6916 13.3708 49.1588 14.9038 46.3753 14.9038H46.0526C46.0124 11.9187 46.0526 9.13529 46.093 6.71491C46.335 6.67455 46.6173 6.67454 46.8998 6.67454C49.2797 6.67454 50.6916 8.12682 50.6916 10.5876ZM27.5775 7.96557H28.586L30.7241 20.632L25.601 21.116L27.5775 7.96557ZM80.3808 18.0905C83.5675 16.4365 86.9156 14.6215 89.9816 12.8868C89.6587 12.2011 88.9325 10.7892 88.4889 10.0632C85.3424 11.9591 82.1959 13.7339 78.9689 15.4684C79.2918 16.2348 80.0177 17.5662 80.3808 18.0905ZM104.826 24.1413C104.826 27.8929 102.769 29.4257 97.3635 29.1835C97.4038 25.7145 97.4845 22.205 97.565 18.6955C102.406 18.8567 104.826 20.7124 104.826 24.1413ZM8.33597 18.8567C10.958 18.8567 11.8052 20.9143 11.8052 22.8503C11.8052 25.6741 10.0706 26.965 7.24696 27.0053C7.12586 24.585 7.005 21.8824 6.8839 19.0989C7.40843 18.9377 7.89238 18.8567 8.33597 18.8567ZM82.0346 21.9629C84.2129 22.6486 86.6333 23.3345 89.0133 23.8993C89.2149 23.1329 89.5376 21.7613 89.6991 20.9143C87.4805 20.3898 85.0198 19.7848 82.8414 19.1393C82.6399 19.704 82.1558 21.3579 82.0346 21.9629Z" fill="#42B0E2"/>
</g>
<defs>
<clipPath id="clip0_1_232">
<rect width="144.95" height="32.9967" fill="white" transform="translate(0.469971 0.341553)"/>
</clipPath>
</defs>
</svg>
