<svg width="26" height="31" viewBox="0 0 26 31" fill="none" xmlns="http://www.w3.org/2000/svg">
<g clip-path="url(#clip0_1_143)">
<path d="M21.4799 27.08V19.08H24.4799V30.08H0.47995V19.08H3.47995V27.08H21.4799Z" fill="#BCBBBB"/>
<path d="M17.58 0.279907L15.4799 1.87991L23.3799 12.4799L25.4799 10.8799L17.58 0.279907ZM21.2799 14.9799L11.08 6.47991L12.78 4.47991L22.9799 12.9799L21.2799 14.9799ZM7.67995 12.3799L19.68 17.9799L20.7799 15.5799L8.77995 9.97991L7.67995 12.3799ZM5.87995 19.1799L19.4399 21.1399L19.6099 18.7599L6.34995 16.2099L5.87995 19.1799ZM19.4799 25.0799H5.47995V22.0799H19.4799V25.0799Z" fill="#F48024"/>
</g>
<defs>
<clipPath id="clip0_1_143">
<rect width="25" height="30" fill="white" transform="translate(0.47995 0.0799561)"/>
</clipPath>
</defs>
</svg>
