<svg width="49" height="49" viewBox="0 0 49 49" fill="none" xmlns="http://www.w3.org/2000/svg">
<g clip-path="url(#clip0_1_283)">
<path opacity="0.2" d="M26.33 11.3401C27.1256 11.3401 27.8887 11.024 28.4513 10.4614C29.0139 9.8988 29.33 9.13574 29.33 8.34009C29.33 7.54444 29.0139 6.78138 28.4513 6.21877C27.8887 5.65616 27.1256 5.34009 26.33 5.34009C25.5343 5.34009 24.7712 5.65616 24.2086 6.21877C23.646 6.78138 23.33 7.54444 23.33 8.34009C23.33 9.13574 23.646 9.8988 24.2086 10.4614C24.7712 11.024 25.5343 11.3401 26.33 11.3401ZM26.33 47.3401C27.1256 47.3401 27.8887 47.024 28.4513 46.4614C29.0139 45.8988 29.33 45.1357 29.33 44.3401C29.33 43.5444 29.0139 42.7814 28.4513 42.2188C27.8887 41.6562 27.1256 41.3401 26.33 41.3401C25.5343 41.3401 24.7712 41.6562 24.2086 42.2188C23.646 42.7814 23.33 43.5444 23.33 44.3401C23.33 45.1357 23.646 45.8988 24.2086 46.4614C24.7712 47.024 25.5343 47.3401 26.33 47.3401ZM45.33 35.3401C45.33 36.1357 45.0139 36.8988 44.4513 37.4614C43.8887 38.024 43.1256 38.3401 42.33 38.3401C41.5343 38.3401 40.7712 38.024 40.2086 37.4614C39.646 36.8988 39.33 36.1357 39.33 35.3401C39.33 34.5444 39.646 33.7814 40.2086 33.2188C40.7712 32.6562 41.5343 32.3401 42.33 32.3401C43.1256 32.3401 43.8887 32.6562 44.4513 33.2188C45.0139 33.7814 45.33 34.5444 45.33 35.3401ZM42.33 20.3401C43.1256 20.3401 43.8887 20.024 44.4513 19.4614C45.0139 18.8988 45.33 18.1357 45.33 17.3401C45.33 16.5444 45.0139 15.7814 44.4513 15.2188C43.8887 14.6562 43.1256 14.3401 42.33 14.3401C41.5343 14.3401 40.7712 14.6562 40.2086 15.2188C39.646 15.7814 39.33 16.5444 39.33 17.3401C39.33 18.1357 39.646 18.8988 40.2086 19.4614C40.7712 20.024 41.5343 20.3401 42.33 20.3401ZM13.33 17.3401C13.33 18.1357 13.0139 18.8988 12.4513 19.4614C11.8887 20.024 11.1256 20.3401 10.33 20.3401C9.53431 20.3401 8.77124 20.024 8.20864 19.4614C7.64603 18.8988 7.32996 18.1357 7.32996 17.3401C7.32996 16.5444 7.64603 15.7814 8.20864 15.2188C8.77124 14.6562 9.53431 14.3401 10.33 14.3401C11.1256 14.3401 11.8887 14.6562 12.4513 15.2188C13.0139 15.7814 13.33 16.5444 13.33 17.3401ZM10.33 38.3401C11.1256 38.3401 11.8887 38.024 12.4513 37.4614C13.0139 36.8988 13.33 36.1357 13.33 35.3401C13.33 34.5444 13.0139 33.7814 12.4513 33.2188C11.8887 32.6562 11.1256 32.3401 10.33 32.3401C9.53431 32.3401 8.77124 32.6562 8.20864 33.2188C7.64603 33.7814 7.32996 34.5444 7.32996 35.3401C7.32996 36.1357 7.64603 36.8988 8.20864 37.4614C8.77124 38.024 9.53431 38.3401 10.33 38.3401ZM29.33 26.3401C29.33 27.1357 29.0139 27.8988 28.4513 28.4614C27.8887 29.024 27.1256 29.3401 26.33 29.3401C25.5343 29.3401 24.7712 29.024 24.2086 28.4614C23.646 27.8988 23.33 27.1357 23.33 26.3401C23.33 25.5444 23.646 24.7814 24.2086 24.2188C24.7712 23.6562 25.5343 23.3401 26.33 23.3401C27.1256 23.3401 27.8887 23.6562 28.4513 24.2188C29.0139 24.7814 29.33 25.5444 29.33 26.3401Z" fill="#F2740D"/>
<path d="M11.3099 36.0102L20.5399 41.0502C20.331 41.6713 20.2779 42.3342 20.3852 42.9806C20.4925 43.627 20.757 44.2372 21.1554 44.7575C21.5538 45.2777 22.0739 45.6922 22.67 45.9643C23.2661 46.2364 23.9199 46.358 24.574 46.3182C25.228 46.2784 25.8623 46.0785 26.4211 45.7362C26.9798 45.3938 27.4458 44.9194 27.7783 44.3547C28.1107 43.79 28.2993 43.1523 28.3275 42.4976C28.3557 41.843 28.2226 41.1914 27.9399 40.6002L37.0499 35.6302C37.4187 36.1595 37.91 36.5918 38.4819 36.8901C39.0538 37.1885 39.6894 37.3441 40.3345 37.3437C40.9796 37.3433 41.615 37.1869 42.1866 36.8878C42.7581 36.5887 43.2489 36.1559 43.6169 35.6261C43.985 35.0963 44.2195 34.4854 44.3004 33.8454C44.3813 33.2055 44.3063 32.5554 44.0816 31.9507C43.857 31.346 43.4894 30.8046 43.0102 30.3727C42.5311 29.9408 41.9546 29.6311 41.3299 29.4702V19.2102C41.8934 19.0649 42.4184 18.7983 42.8683 18.4292C43.3181 18.06 43.682 17.5972 43.9346 17.0729C44.1871 16.5486 44.3222 15.9756 44.3305 15.3937C44.3387 14.8118 44.2199 14.2352 43.9823 13.704C43.7448 13.1727 43.3942 12.6997 42.9549 12.318C42.5157 11.9362 41.9985 11.6549 41.4394 11.4936C40.8803 11.3324 40.2927 11.295 39.7176 11.3843C39.1426 11.4735 38.5939 11.6871 38.1099 12.0102L28.2899 5.7702C28.1541 4.81673 27.6788 3.94428 26.9513 3.31313C26.2238 2.68197 25.293 2.33447 24.3299 2.33447C23.3668 2.33447 22.4361 2.68197 21.7086 3.31313C20.9811 3.94428 20.5058 4.81673 20.3699 5.7702L10.5499 12.0102C10.066 11.6871 9.5173 11.4735 8.94225 11.3843C8.3672 11.295 7.77961 11.3324 7.22048 11.4936C6.66135 11.6549 6.14413 11.9362 5.70493 12.318C5.26572 12.6997 4.9151 13.1727 4.67752 13.704C4.43995 14.2352 4.32114 14.8118 4.3294 15.3937C4.33765 15.9756 4.47276 16.5486 4.72531 17.0729C4.97786 17.5972 5.34175 18.06 5.79161 18.4292C6.24147 18.7983 6.76645 19.0649 7.32994 19.2102V29.4702C6.72515 29.6261 6.16528 29.9215 5.69516 30.3327C5.22504 30.7438 4.85773 31.2594 4.62265 31.838C4.38757 32.4166 4.29125 33.0423 4.34141 33.6648C4.39157 34.2873 4.58681 34.8895 4.9115 35.423C5.23618 35.9565 5.68129 36.4066 6.21118 36.7372C6.74106 37.0678 7.341 37.2697 7.96295 37.3268C8.58489 37.3839 9.21156 37.2945 9.79277 37.0659C10.374 36.8373 10.8936 36.4757 11.3099 36.0102ZM24.3299 4.3402C24.8604 4.3402 25.3691 4.55092 25.7442 4.92599C26.1192 5.30106 26.3299 5.80977 26.3299 6.3402C26.3299 6.87064 26.1192 7.37934 25.7442 7.75442C25.3691 8.12949 24.8604 8.3402 24.3299 8.3402C23.7995 8.3402 23.2908 8.12949 22.9157 7.75442C22.5407 7.37934 22.3299 6.87064 22.3299 6.3402C22.3299 5.80977 22.5407 5.30106 22.9157 4.92599C23.2908 4.55092 23.7995 4.3402 24.3299 4.3402ZM21.0899 22.0002L17.1699 19.5002L22.5699 9.9402C22.8199 10.0502 23.0699 10.1402 23.3299 10.2102V20.4702C22.4279 20.7037 21.6356 21.2449 21.0899 22.0002ZM15.4799 18.4302L12.1999 16.3502C12.4477 15.4051 12.341 14.402 11.8999 13.5302L20.6699 7.9502C20.7695 8.17757 20.89 8.39518 21.0299 8.6002L15.4799 18.4302ZM14.4899 20.1702L9.32994 29.3102V19.2102C10.0546 19.0251 10.7128 18.6406 11.2299 18.1002L14.4899 20.1702ZM11.0299 30.3802L16.1899 21.2502L20.3599 23.9002C20.328 24.1927 20.328 24.4877 20.3599 24.7802L11.2399 30.5802C11.1756 30.5112 11.1089 30.4445 11.0399 30.3802H11.0299ZM27.2299 21.5802C26.7128 21.0398 26.0546 20.6553 25.3299 20.4702V10.3702L30.4899 19.5102L27.2299 21.5802ZM28.2099 23.3302L31.4899 21.2502L36.9399 30.9002L28.2099 25.3502C28.3828 24.688 28.3828 23.9924 28.2099 23.3302ZM33.1799 20.1702L37.0999 17.6802C37.6431 18.4336 38.4315 18.9746 39.3299 19.2102V29.4702C39.0699 29.5302 38.8199 29.6302 38.5799 29.7402L33.1699 20.1702H33.1799ZM27.0199 9.3002C27.4299 8.9202 27.7699 8.4602 27.9899 7.9502L36.7599 13.5302C36.4095 14.225 36.2705 15.0072 36.3599 15.7802L32.1799 18.4302L27.0199 9.3002ZM25.3299 28.2102C26.0546 28.0251 26.7128 27.6406 27.2299 27.1002L35.4699 32.3402H25.3299V28.2102ZM23.3299 32.3402H12.1999L21.0899 26.6802C21.6356 27.4355 22.4279 27.9767 23.3299 28.2102V32.3402ZM12.4199 34.3402H23.3299V38.4702C22.7056 38.6305 22.1292 38.9392 21.6499 39.3702L12.4199 34.3402ZM10.3299 33.3402C10.3299 33.8706 10.1192 34.3793 9.74415 34.7544C9.36908 35.1295 8.86037 35.3402 8.32994 35.3402C7.7995 35.3402 7.2908 35.1295 6.91572 34.7544C6.54065 34.3793 6.32994 33.8706 6.32994 33.3402C6.32994 32.8098 6.54065 32.3011 6.91572 31.926C7.2908 31.5509 7.7995 31.3402 8.32994 31.3402C8.86037 31.3402 9.36908 31.5509 9.74415 31.926C10.1192 32.3011 10.3299 32.8098 10.3299 33.3402ZM25.3299 34.3402H35.2399L26.6099 39.0502C26.221 38.7825 25.7876 38.5861 25.3299 38.4702V34.3402ZM26.3299 24.3402C26.3299 24.8706 26.1192 25.3793 25.7442 25.7544C25.3691 26.1295 24.8604 26.3402 24.3299 26.3402C23.7995 26.3402 23.2908 26.1295 22.9157 25.7544C22.5407 25.3793 22.3299 24.8706 22.3299 24.3402C22.3299 23.8098 22.5407 23.3011 22.9157 22.926C23.2908 22.5509 23.7995 22.3402 24.3299 22.3402C24.8604 22.3402 25.3691 22.5509 25.7442 22.926C26.1192 23.3011 26.3299 23.8098 26.3299 24.3402ZM10.3299 15.3402C10.3299 15.8706 10.1192 16.3793 9.74415 16.7544C9.36908 17.1295 8.86037 17.3402 8.32994 17.3402C7.7995 17.3402 7.2908 17.1295 6.91572 16.7544C6.54065 16.3793 6.32994 15.8706 6.32994 15.3402C6.32994 14.8098 6.54065 14.3011 6.91572 13.926C7.2908 13.5509 7.7995 13.3402 8.32994 13.3402C8.86037 13.3402 9.36908 13.5509 9.74415 13.926C10.1192 14.3011 10.3299 14.8098 10.3299 15.3402ZM40.3299 17.3402C39.7995 17.3402 39.2908 17.1295 38.9157 16.7544C38.5406 16.3793 38.3299 15.8706 38.3299 15.3402C38.3299 14.8098 38.5406 14.3011 38.9157 13.926C39.2908 13.5509 39.7995 13.3402 40.3299 13.3402C40.8604 13.3402 41.3691 13.5509 41.7442 13.926C42.1192 14.3011 42.3299 14.8098 42.3299 15.3402C42.3299 15.8706 42.1192 16.3793 41.7442 16.7544C41.3691 17.1295 40.8604 17.3402 40.3299 17.3402ZM22.3299 42.3402C22.3299 41.8098 22.5407 41.3011 22.9157 40.926C23.2908 40.5509 23.7995 40.3402 24.3299 40.3402C24.8604 40.3402 25.3691 40.5509 25.7442 40.926C26.1192 41.3011 26.3299 41.8098 26.3299 42.3402C26.3299 42.8706 26.1192 43.3793 25.7442 43.7544C25.3691 44.1295 24.8604 44.3402 24.3299 44.3402C23.7995 44.3402 23.2908 44.1295 22.9157 43.7544C22.5407 43.3793 22.3299 42.8706 22.3299 42.3402ZM40.3299 31.3402C40.8604 31.3402 41.3691 31.5509 41.7442 31.926C42.1192 32.3011 42.3299 32.8098 42.3299 33.3402C42.3299 33.8706 42.1192 34.3793 41.7442 34.7544C41.3691 35.1295 40.8604 35.3402 40.3299 35.3402C39.7995 35.3402 39.2908 35.1295 38.9157 34.7544C38.5406 34.3793 38.3299 33.8706 38.3299 33.3402C38.3299 32.8098 38.5406 32.3011 38.9157 31.926C39.2908 31.5509 39.7995 31.3402 40.3299 31.3402Z" fill="#F2740D"/>
</g>
<defs>
<clipPath id="clip0_1_283">
<rect width="48" height="48" fill="white" transform="translate(0.329956 0.340088)"/>
</clipPath>
</defs>
</svg>
