<svg width="49" height="49" viewBox="0 0 49 49" fill="none" xmlns="http://www.w3.org/2000/svg">
<g clip-path="url(#clip0_1_302)">
<path opacity="0.2" d="M43.7 11.3401C44.6282 11.3401 45.5184 10.9713 46.1748 10.315C46.8312 9.65858 47.2 8.76835 47.2 7.84009C47.2 6.91183 46.8312 6.02159 46.1748 5.36521C45.5184 4.70884 44.6282 4.34009 43.7 4.34009C42.7717 4.34009 41.8815 4.70884 41.2251 5.36521C40.5687 6.02159 40.2 6.91183 40.2 7.84009C40.2 8.76835 40.5687 9.65858 41.2251 10.315C41.8815 10.9713 42.7717 11.3401 43.7 11.3401ZM15.7 24.3401C16.6282 24.3401 17.5184 23.9713 18.1748 23.315C18.8312 22.6586 19.2 21.7683 19.2 20.8401C19.2 19.9118 18.8312 19.0216 18.1748 18.3652C17.5184 17.7088 16.6282 17.3401 15.7 17.3401C14.7717 17.3401 13.8815 17.7088 13.2251 18.3652C12.5687 19.0216 12.2 19.9118 12.2 20.8401C12.2 21.7683 12.5687 22.6586 13.2251 23.315C13.8815 23.9713 14.7717 24.3401 15.7 24.3401ZM7.69995 46.3401C8.62821 46.3401 9.51845 45.9713 10.1748 45.315C10.8312 44.6586 11.2 43.7683 11.2 42.8401C11.2 41.9118 10.8312 41.0216 10.1748 40.3652C9.51845 39.7088 8.62821 39.3401 7.69995 39.3401C6.77169 39.3401 5.88145 39.7088 5.22508 40.3652C4.5687 41.0216 4.19995 41.9118 4.19995 42.8401C4.19995 43.7683 4.5687 44.6586 5.22508 45.315C5.88145 45.9713 6.77169 46.3401 7.69995 46.3401ZM36.2 28.8401C36.2 29.7683 35.8312 30.6586 35.1748 31.315C34.5184 31.9713 33.6282 32.3401 32.7 32.3401C31.7717 32.3401 30.8815 31.9713 30.2251 31.315C29.5687 30.6586 29.2 29.7683 29.2 28.8401C29.2 27.9118 29.5687 27.0216 30.2251 26.3652C30.8815 25.7088 31.7717 25.3401 32.7 25.3401C33.6282 25.3401 34.5184 25.7088 35.1748 26.3652C35.8312 27.0216 36.2 27.9118 36.2 28.8401Z" fill="#F2740D"/>
<path d="M37.3999 5.84019C37.4008 4.9495 37.6782 4.08105 38.1938 3.35481C38.7095 2.62856 39.4379 2.08036 40.2785 1.78593C41.1191 1.49149 42.0304 1.46536 42.8865 1.71115C43.7426 1.95693 44.5013 2.46249 45.0577 3.158C45.6141 3.85351 45.9408 4.70464 45.9926 5.59381C46.0445 6.48298 45.819 7.36632 45.3472 8.1218C44.8754 8.87728 44.1807 9.46761 43.359 9.81126C42.5372 10.1549 41.6291 10.2349 40.7599 10.0402L34.3199 23.4202C34.9 23.8688 35.3557 24.4583 35.6438 25.1327C35.9318 25.807 36.0426 26.5438 35.9656 27.2731C35.8886 28.0023 35.6264 28.6998 35.2039 29.2991C34.7814 29.8985 34.2127 30.3798 33.5517 30.6974C32.8908 31.015 32.1596 31.1583 31.4277 31.1137C30.6957 31.0691 29.9874 30.838 29.3699 30.4424C28.7524 30.0469 28.2464 29.5 27.8998 28.8538C27.5533 28.2075 27.3778 27.4834 27.3899 26.7502L27.3699 26.7302L17.3899 21.0602C16.9721 21.7575 16.3651 22.3221 15.6395 22.6884C14.9138 23.0548 14.0991 23.208 13.2899 23.1302L8.08995 37.2602C8.97958 37.8549 9.61551 38.7599 9.87346 39.7985C10.1314 40.837 9.99285 41.9344 9.48486 42.8763C8.97687 43.8181 8.13595 44.5367 7.12642 44.8916C6.11689 45.2465 5.01129 45.2123 4.02567 44.7955C3.04005 44.3788 2.24523 43.6095 1.79653 42.638C1.34783 41.6666 1.27748 40.5627 1.59924 39.5421C1.92099 38.5215 2.61173 37.6576 3.53648 37.1191C4.46123 36.5806 5.55353 36.4063 6.59995 36.6302L11.7299 22.6702C11.0262 22.3069 10.4365 21.7563 10.0259 21.0791C9.61521 20.4019 9.39953 19.6245 9.40263 18.8326C9.40572 18.0406 9.62747 17.2649 10.0434 16.591C10.4594 15.917 11.0533 15.3711 11.7599 15.0133C12.4664 14.6554 13.258 14.4997 14.0474 14.5632C14.8368 14.6267 15.5934 14.907 16.2336 15.3732C16.8738 15.8393 17.3729 16.4732 17.6758 17.205C17.9786 17.9367 18.0735 18.7379 17.9499 19.5202L27.7599 25.1002C28.1791 24.1488 28.9286 23.3815 29.87 22.9402C30.8113 22.499 31.8806 22.4137 32.8799 22.7002L39.2799 9.40019C38.698 9.00638 38.2215 8.47596 37.892 7.85535C37.5625 7.23474 37.3901 6.54284 37.3899 5.84019H37.3999ZM41.6999 3.14019C41.3454 3.14019 40.9943 3.21003 40.6667 3.34571C40.3391 3.4814 40.0415 3.68028 39.7908 3.931C39.54 4.18172 39.3412 4.47936 39.2055 4.80694C39.0698 5.13452 38.9999 5.48562 38.9999 5.84019C38.9999 6.19476 39.0698 6.54585 39.2055 6.87343C39.3412 7.20101 39.54 7.49866 39.7908 7.74938C40.0415 8.00009 40.3391 8.19898 40.6667 8.33466C40.9943 8.47035 41.3454 8.54019 41.6999 8.54019C42.416 8.54019 43.1028 8.25572 43.6091 7.74938C44.1155 7.24303 44.3999 6.55627 44.3999 5.84019C44.3999 5.1241 44.1155 4.43735 43.6091 3.931C43.1028 3.42465 42.416 3.14019 41.6999 3.14019ZM13.6999 16.1402C12.9839 16.1402 12.2971 16.4247 11.7908 16.931C11.2844 17.4373 10.9999 18.1241 10.9999 18.8402C10.9999 19.5563 11.2844 20.243 11.7908 20.7494C12.2971 21.2557 12.9839 21.5402 13.6999 21.5402C14.416 21.5402 15.1028 21.2557 15.6091 20.7494C16.1155 20.243 16.3999 19.5563 16.3999 18.8402C16.3999 18.1241 16.1155 17.4373 15.6091 16.931C15.1028 16.4247 14.416 16.1402 13.6999 16.1402ZM5.69995 38.1402C4.98386 38.1402 4.29711 38.4247 3.79076 38.931C3.28441 39.4373 2.99995 40.1241 2.99995 40.8402C2.99995 41.5563 3.28441 42.243 3.79076 42.7494C4.29711 43.2557 4.98386 43.5402 5.69995 43.5402C6.41603 43.5402 7.10279 43.2557 7.60914 42.7494C8.11548 42.243 8.39995 41.5563 8.39995 40.8402C8.39995 40.1241 8.11548 39.4373 7.60914 38.931C7.10279 38.4247 6.41603 38.1402 5.69995 38.1402ZM28.9999 26.8402C28.9999 27.5563 29.2844 28.243 29.7908 28.7494C30.2971 29.2557 30.9839 29.5402 31.6999 29.5402C32.416 29.5402 33.1028 29.2557 33.6091 28.7494C34.1155 28.243 34.3999 27.5563 34.3999 26.8402C34.3999 26.1241 34.1155 25.4373 33.6091 24.931C33.1028 24.4247 32.416 24.1402 31.6999 24.1402C30.9839 24.1402 30.2971 24.4247 29.7908 24.931C29.2844 25.4373 28.9999 26.1241 28.9999 26.8402Z" fill="#F2740D"/>
</g>
<defs>
<clipPath id="clip0_1_302">
<rect width="48" height="48" fill="white" transform="translate(0.199951 0.340088)"/>
</clipPath>
</defs>
</svg>
