<svg width="49" height="49" viewBox="0 0 49 49" fill="none" xmlns="http://www.w3.org/2000/svg">
<g clip-path="url(#clip0_1_275)">
<path opacity="0.2" d="M21.2 27.3V38.8L31.2 31.8V20.3L21.2 27.3Z" fill="#F2740D"/>
<path d="M23.1999 15.9201C23.1999 16.1853 23.3053 16.4397 23.4928 16.6272C23.6804 16.8147 23.9347 16.9201 24.1999 16.9201C24.4652 16.9201 24.7195 16.8147 24.9071 16.6272C25.0946 16.4397 25.1999 16.1853 25.1999 15.9201V12.9201C25.1999 12.6549 25.0946 12.4005 24.9071 12.213C24.7195 12.0255 24.4652 11.9201 24.1999 11.9201C23.9347 11.9201 23.6804 12.0255 23.4928 12.213C23.3053 12.4005 23.1999 12.6549 23.1999 12.9201V15.9201ZM13.1699 28.8001C13.4352 28.8001 13.6895 28.6947 13.8771 28.5072C14.0646 28.3197 14.1699 28.0653 14.1699 27.8001C14.1699 27.5349 14.0646 27.2805 13.8771 27.093C13.6895 26.9055 13.4352 26.8001 13.1699 26.8001H10.1799C9.91473 26.8001 9.66037 26.9055 9.47284 27.093C9.2853 27.2805 9.17994 27.5349 9.17994 27.8001C9.17994 28.0653 9.2853 28.3197 9.47284 28.5072C9.66037 28.6947 9.91473 28.8001 10.1799 28.8001H13.1799H13.1699ZM38.1999 28.8001C38.4652 28.8001 38.7195 28.6947 38.9071 28.5072C39.0946 28.3197 39.1999 28.0653 39.1999 27.8001C39.1999 27.5349 39.0946 27.2805 38.9071 27.093C38.7195 26.9055 38.4652 26.8001 38.1999 26.8001H35.2099C34.9447 26.8001 34.6904 26.9055 34.5028 27.093C34.3153 27.2805 34.2099 27.5349 34.2099 27.8001C34.2099 28.0653 34.3153 28.3197 34.5028 28.5072C34.6904 28.6947 34.9447 28.8001 35.2099 28.8001H38.1999ZM24.1399 43.8001C23.8747 43.8001 23.6204 43.6947 23.4328 43.5072C23.2453 43.3197 23.1399 43.0653 23.1399 42.8001V39.8001C23.1399 39.5349 23.2453 39.2805 23.4328 39.093C23.6204 38.9055 23.8747 38.8001 24.1399 38.8001C24.4052 38.8001 24.6595 38.9055 24.8471 39.093C25.0346 39.2805 25.1399 39.5349 25.1399 39.8001V42.8001C25.1399 43.0653 25.0346 43.3197 24.8471 43.5072C24.6595 43.6947 24.4052 43.8001 24.1399 43.8001ZM33.4399 37.4501C33.6312 37.6139 33.8773 37.6995 34.129 37.6898C34.3807 37.6801 34.6194 37.5758 34.7975 37.3977C34.9756 37.2196 35.0799 36.9808 35.0897 36.7292C35.0994 36.4775 35.0138 36.2314 34.8499 36.0401L34.1499 35.3401C34.061 35.2348 33.9513 35.1491 33.8277 35.0882C33.7041 35.0274 33.5692 34.9927 33.4315 34.9864C33.2939 34.9802 33.1564 35.0024 33.0278 35.0518C32.8991 35.1011 32.7821 35.1766 32.6839 35.2733C32.5858 35.37 32.5087 35.486 32.4576 35.614C32.4064 35.7419 32.3822 35.879 32.3865 36.0167C32.3908 36.1545 32.4236 36.2898 32.4827 36.4143C32.5418 36.5388 32.626 36.6497 32.7299 36.7401L33.4399 37.4501ZM15.4999 20.5001L14.7899 19.8001C14.6261 19.6088 14.5405 19.3627 14.5502 19.111C14.56 18.8594 14.6643 18.6206 14.8424 18.4425C15.0205 18.2644 15.2592 18.1601 15.5109 18.1504C15.7626 18.1407 16.0086 18.2263 16.1999 18.3901L16.8999 19.0901C17.0652 19.2802 17.1527 19.5257 17.1448 19.7775C17.1369 20.0293 17.0342 20.2689 16.8574 20.4482C16.6805 20.6276 16.4424 20.7337 16.1908 20.7451C15.9391 20.7566 15.6924 20.6727 15.4999 20.5101V20.5001ZM13.5499 37.0401C13.3861 37.2314 13.3005 37.4775 13.3102 37.7292C13.32 37.9808 13.4243 38.2196 13.6024 38.3977C13.7805 38.5758 14.0192 38.6801 14.2709 38.6898C14.5226 38.6995 14.7686 38.6139 14.9599 38.4501L15.6599 37.7501C15.7652 37.6612 15.851 37.5515 15.9118 37.4278C15.9727 37.3042 16.0073 37.1693 16.0136 37.0317C16.0199 36.894 15.9976 36.7566 15.9483 36.6279C15.8989 36.4993 15.8235 36.3822 15.7267 36.2841C15.63 36.186 15.514 36.1089 15.3861 36.0577C15.2582 36.0065 15.121 35.9823 14.9833 35.9867C14.8456 35.991 14.7102 36.0237 14.5857 36.0828C14.4613 36.1419 14.3503 36.2261 14.2599 36.3301L13.5499 37.0401ZM32.4999 20.2101C32.3137 20.0227 32.2092 19.7693 32.2092 19.5051C32.2092 19.2409 32.3137 18.9875 32.4999 18.8001L33.1999 18.1001C33.2872 17.9894 33.3969 17.8985 33.5218 17.8331C33.6466 17.7678 33.7839 17.7296 33.9246 17.7211C34.0653 17.7126 34.2062 17.7339 34.338 17.7836C34.4699 17.8333 34.5898 17.9103 34.6898 18.0096C34.7898 18.1089 34.8677 18.2283 34.9184 18.3598C34.969 18.4913 34.9913 18.632 34.9838 18.7728C34.9762 18.9135 34.939 19.051 34.8746 19.1764C34.8102 19.3017 34.72 19.412 34.6099 19.5001L33.9099 20.2101C33.817 20.3038 33.7064 20.3782 33.5845 20.429C33.4627 20.4798 33.332 20.5059 33.1999 20.5059C33.0679 20.5059 32.9372 20.4798 32.8154 20.429C32.6935 20.3782 32.5829 20.3038 32.4899 20.2101H32.4999ZM24.1999 29.8001C24.7304 29.8001 25.2391 29.5894 25.6142 29.2143C25.9892 28.8392 26.1999 28.3305 26.1999 27.8001C26.1999 27.2697 25.9892 26.761 25.6142 26.3859C25.2391 26.0108 24.7304 25.8001 24.1999 25.8001C23.6695 25.8001 23.1608 26.0108 22.7857 26.3859C22.4107 26.761 22.1999 27.2697 22.1999 27.8001C22.1999 28.3305 22.4107 28.8392 22.7857 29.2143C23.1608 29.5894 23.6695 29.8001 24.1999 29.8001ZM30.1999 18.8001C30.1999 18.6144 30.1482 18.4323 30.0506 18.2744C29.953 18.1164 29.8133 17.9887 29.6472 17.9057C29.4811 17.8226 29.2951 17.7875 29.1101 17.8041C28.9252 17.8208 28.7485 17.8887 28.5999 18.0001L18.5999 25.5001C18.4757 25.5932 18.3749 25.714 18.3055 25.8529C18.2361 25.9917 18.1999 26.1449 18.1999 26.3001V36.8001C18.1991 36.981 18.2473 37.1588 18.3395 37.3145C18.4317 37.4702 18.5644 37.5979 18.7235 37.6841C18.8825 37.7703 19.062 37.8118 19.2428 37.804C19.4236 37.7963 19.5988 37.7396 19.7499 37.6401L29.7499 31.1401C29.8889 31.0486 30.0029 30.9238 30.0814 30.7771C30.16 30.6305 30.2007 30.4665 30.1999 30.3001V18.8001ZM20.1999 34.9601V26.8001L28.1999 20.8001V29.7601L20.1999 34.9601ZM26.6799 8.8401C27.3163 8.32587 27.7777 7.62717 28.0008 6.84004C28.224 6.05291 28.1978 5.216 27.926 4.44434C27.6541 3.67268 27.15 3.00416 26.4828 2.53067C25.8156 2.05717 25.0181 1.80196 24.1999 1.8001C23.379 1.79605 22.5772 2.04787 21.906 2.52056C21.2349 2.99326 20.7276 3.66333 20.4549 4.43762C20.1821 5.21192 20.1574 6.05196 20.3841 6.84096C20.6108 7.62997 21.0777 8.32873 21.7199 8.8401C17.1435 9.45332 12.9455 11.7078 9.90677 15.1844C6.86804 18.6609 5.1954 23.1227 5.19995 27.7401C5.19995 38.2701 13.6999 46.8001 24.1999 46.8001C34.6999 46.8001 43.1999 38.2701 43.1999 27.7401C43.1999 18.0501 35.9999 10.0601 26.6799 8.8401ZM26.1499 5.7601C26.1499 6.01617 26.0995 6.26974 26.0015 6.50633C25.9035 6.74291 25.7599 6.95788 25.5788 7.13896C25.3977 7.32003 25.1828 7.46367 24.9462 7.56166C24.7096 7.65966 24.456 7.7101 24.1999 7.7101C23.9439 7.7101 23.6903 7.65966 23.4537 7.56166C23.2171 7.46367 23.0022 7.32003 22.8211 7.13896C22.64 6.95788 22.4964 6.74291 22.3984 6.50633C22.3004 6.26974 22.2499 6.01617 22.2499 5.7601C22.2499 5.50402 22.3004 5.25045 22.3984 5.01386C22.4964 4.77728 22.64 4.56231 22.8211 4.38124C23.0022 4.20016 23.2171 4.05653 23.4537 3.95853C23.6903 3.86054 23.9439 3.8101 24.1999 3.8101C24.456 3.8101 24.7096 3.86054 24.9462 3.95853C25.1828 4.05653 25.3977 4.20016 25.5788 4.38124C25.7599 4.56231 25.9035 4.77728 26.0015 5.01386C26.0995 5.25045 26.1499 5.50402 26.1499 5.7601ZM24.1999 44.8001C14.8199 44.8001 7.19995 37.1701 7.19995 27.7401C7.19995 18.3101 14.8199 10.6701 24.1999 10.6701C33.5799 10.6701 41.1999 18.3101 41.1999 27.7401C41.1999 37.1701 33.5799 44.8001 24.1999 44.8001Z" fill="#F2740D"/>
</g>
<defs>
<clipPath id="clip0_1_275">
<rect width="48" height="48" fill="white" transform="translate(0.199951 0.800049)"/>
</clipPath>
</defs>
</svg>
