<svg width="97" height="97" viewBox="0 0 97 97" fill="none" xmlns="http://www.w3.org/2000/svg">
<g clip-path="url(#clip0_1_346)">
<path opacity="0.2" d="M36.33 48.0002C36.3314 49.4475 36.0014 50.876 35.3652 52.176C34.7291 53.476 33.8037 54.6131 32.66 55.5002H38.42C38.6824 55.5013 38.9338 55.6054 39.12 55.7902L40.51 57.1502C40.8898 55.2294 41.8538 53.473 43.2701 52.1211C44.6864 50.7692 46.4858 49.8879 48.4221 49.5978C50.3585 49.3078 52.3371 49.6231 54.0874 50.5006C55.8377 51.3781 57.2741 52.775 58.2 54.5002H65.9C64.6326 53.1485 63.7881 51.4557 63.4706 49.6302C63.153 47.8047 63.3762 45.9262 64.1127 44.226C64.8492 42.5257 66.0669 41.078 67.6158 40.061C69.1646 39.044 70.9771 38.5021 72.83 38.5021C74.6829 38.5021 76.4954 39.044 78.0443 40.061C79.5931 41.078 80.8108 42.5257 81.5473 44.226C82.2838 45.9262 82.507 47.8047 82.1895 49.6302C81.8719 51.4557 81.0274 53.1485 79.76 54.5002H83.33C84.3909 54.5002 85.4083 54.9216 86.1584 55.6718C86.9086 56.4219 87.33 57.4393 87.33 58.5002V81.5002C87.33 82.0306 87.1193 82.5393 86.7442 82.9144C86.3692 83.2895 85.8605 83.5002 85.33 83.5002H64.33V93.5002C64.33 93.7654 64.2247 94.0197 64.0371 94.2073C63.8496 94.3948 63.5952 94.5002 63.33 94.5002H36.33C36.0648 94.5002 35.8104 94.3948 35.6229 94.2073C35.4354 94.0197 35.33 93.7654 35.33 93.5002V83.5002H16.33C16.0648 83.5002 15.8104 83.3948 15.6229 83.2073C15.4354 83.0197 15.33 82.7654 15.33 82.5002V59.5002C15.33 58.4393 15.7514 57.4219 16.5016 56.6718C17.2517 55.9216 18.2692 55.5002 19.33 55.5002H21C19.4249 54.2912 18.2692 52.6181 17.6959 50.7171C17.1226 48.816 17.1607 46.783 17.8048 44.9047C18.4489 43.0265 19.6665 41.3979 21.2859 40.2488C22.9052 39.0997 24.8444 38.4881 26.83 38.5002C29.3496 38.5002 31.7659 39.5011 33.5475 41.2827C35.3291 43.0643 36.33 45.4806 36.33 48.0002Z" fill="#F2740D"/>
<path d="M13.33 44.9998C13.3297 43.1451 13.7984 41.3205 14.6924 39.6956C15.5864 38.0707 16.8767 36.6981 18.4435 35.7056C20.0102 34.7132 21.8025 34.1329 23.6536 34.0189C25.5047 33.9048 27.3546 34.2607 29.0314 35.0533C30.7081 35.846 32.1572 37.0497 33.2439 38.5526C34.3306 40.0556 35.0197 41.8088 35.247 43.6495C35.4744 45.4901 35.2327 47.3584 34.5444 49.0806C33.856 50.8028 32.7434 52.3229 31.31 53.4998H31.83C32.2278 53.4998 32.6094 53.6578 32.8907 53.9391C33.172 54.2204 33.33 54.602 33.33 54.9998C33.33 55.3976 33.172 55.7791 32.8907 56.0605C32.6094 56.3418 32.2278 56.4998 31.83 56.4998H15.87C13.83 56.4998 12.33 58.0398 12.33 59.7098V78.4998H16.71C16.4648 78.2245 16.3295 77.8685 16.33 77.4998V63.4998C16.33 63.102 16.4881 62.7204 16.7694 62.4391C17.0507 62.1578 17.4322 61.9998 17.83 61.9998C18.2278 61.9998 18.6094 62.1578 18.8907 62.4391C19.172 62.7204 19.33 63.102 19.33 63.4998V77.4998C19.33 77.8798 19.19 78.2298 18.95 78.4998H28.01C28.4078 78.4998 28.7894 78.6578 29.0707 78.9391C29.352 79.2204 29.51 79.602 29.51 79.9998C29.51 80.3976 29.352 80.7791 29.0707 81.0605C28.7894 81.3418 28.4078 81.4998 28.01 81.4998H10.83C10.4322 81.4998 10.0507 81.3418 9.76936 81.0605C9.48805 80.7791 9.33002 80.3976 9.33002 79.9998V59.7098C9.33002 56.2098 12.36 53.4998 15.87 53.4998H17.35C16.0924 52.4691 15.0793 51.1718 14.3841 49.7019C13.6889 48.2319 13.3289 46.6259 13.33 44.9998ZM24.33 36.9998C22.2083 36.9998 20.1735 37.8426 18.6732 39.3429C17.1729 40.8432 16.33 42.8781 16.33 44.9998C16.33 47.1215 17.1729 49.1564 18.6732 50.6566C20.1735 52.1569 22.2083 52.9998 24.33 52.9998C26.4517 52.9998 28.4866 52.1569 29.9869 50.6566C31.4872 49.1564 32.33 47.1215 32.33 44.9998C32.33 42.8781 31.4872 40.8432 29.9869 39.3429C28.4866 37.8426 26.4517 36.9998 24.33 36.9998ZM47.33 44.9998C45.063 45.0002 42.8514 45.7011 40.998 47.0066C39.1445 48.312 37.7396 50.1583 36.9756 52.2927C36.2116 54.4271 36.1257 56.7455 36.7298 58.9306C37.3338 61.1157 38.5982 63.0608 40.35 64.4998H39.02C35.45 64.4998 32.33 67.2298 32.33 70.7998V90.9998C32.33 91.8298 33 92.4998 33.83 92.4998H60.83C61.66 92.4998 62.33 91.8298 62.33 90.9998V70.7998C62.33 67.2298 59.21 64.4998 55.63 64.4998H54.31C56.0618 63.0608 57.3262 61.1157 57.9303 58.9306C58.5343 56.7455 58.4484 54.4271 57.6844 52.2927C56.9204 50.1583 55.5155 48.312 53.6621 47.0066C51.8086 45.7011 49.5971 45.0002 47.33 44.9998ZM39.33 55.9998C39.33 53.8781 40.1729 51.8432 41.6732 50.3429C43.1735 48.8426 45.2083 47.9998 47.33 47.9998C49.4517 47.9998 51.4866 48.8426 52.9869 50.3429C54.4872 51.8432 55.33 53.8781 55.33 55.9998C55.33 58.1215 54.4872 60.1564 52.9869 61.6566C51.4866 63.1569 49.4517 63.9998 47.33 63.9998C45.2083 63.9998 43.1735 63.1569 41.6732 61.6566C40.1729 60.1564 39.33 58.1215 39.33 55.9998ZM35.33 70.7998C35.33 69.0998 36.88 67.4998 39.03 67.4998H55.63C57.78 67.4998 59.33 69.0998 59.33 70.7998V89.4998H55.33V75.4998C55.33 75.102 55.172 74.7204 54.8907 74.4391C54.6094 74.1578 54.2278 73.9998 53.83 73.9998C53.4322 73.9998 53.0507 74.1578 52.7694 74.4391C52.4881 74.7204 52.33 75.102 52.33 75.4998V89.4998H42.33V75.4998C42.33 75.102 42.172 74.7204 41.8907 74.4391C41.6094 74.1578 41.2278 73.9998 40.83 73.9998C40.4322 73.9998 40.0507 74.1578 39.7694 74.4391C39.4881 74.7204 39.33 75.102 39.33 75.4998V89.4998H35.33V70.7998ZM70.33 33.9998C72.5971 34.0002 74.8086 34.7011 76.6621 36.0066C78.5156 37.312 79.9204 39.1583 80.6844 41.2927C81.4484 43.4271 81.5343 45.7455 80.9303 47.9306C80.3262 50.1157 79.0618 52.0608 77.31 53.4998H79.01C80.6704 53.4891 82.2675 54.1365 83.4519 55.3002C84.6363 56.464 85.3115 58.0494 85.33 59.7098V79.9998C85.33 80.8298 84.66 81.4998 83.83 81.4998H66.65C66.2522 81.4998 65.8707 81.3418 65.5894 81.0605C65.3081 80.7791 65.15 80.3976 65.15 79.9998C65.15 79.602 65.3081 79.2204 65.5894 78.9391C65.8707 78.6578 66.2522 78.4998 66.65 78.4998H74.71C74.4647 78.2245 74.3295 77.8685 74.33 77.4998V63.4998C74.33 63.102 74.4881 62.7204 74.7694 62.4391C75.0507 62.1578 75.4322 61.9998 75.83 61.9998C76.2278 61.9998 76.6094 62.1578 76.8907 62.4391C77.172 62.7204 77.33 63.102 77.33 63.4998V77.4998C77.33 77.8798 77.19 78.2298 76.95 78.4998H82.33V59.7098C82.3116 58.8451 81.9525 58.0227 81.3307 57.4215C80.7089 56.8203 79.8748 56.489 79.01 56.4998H62.83C62.4322 56.4998 62.0507 56.3418 61.7694 56.0605C61.4881 55.7791 61.33 55.3976 61.33 54.9998C61.33 54.602 61.4881 54.2204 61.7694 53.9391C62.0507 53.6578 62.4322 53.4998 62.83 53.4998H63.35C61.5982 52.0608 60.3338 50.1157 59.7298 47.9306C59.1257 45.7455 59.2116 43.4271 59.9756 41.2927C60.7396 39.1583 62.1445 37.312 63.998 36.0066C65.8514 34.7011 68.063 34.0002 70.33 33.9998ZM78.33 44.9998C78.33 42.8781 77.4872 40.8432 75.9869 39.3429C74.4866 37.8426 72.4517 36.9998 70.33 36.9998C68.2083 36.9998 66.1735 37.8426 64.6732 39.3429C63.1729 40.8432 62.33 42.8781 62.33 44.9998C62.33 47.1215 63.1729 49.1564 64.6732 50.6566C66.1735 52.1569 68.2083 52.9998 70.33 52.9998C72.4517 52.9998 74.4866 52.1569 75.9869 50.6566C77.4872 49.1564 78.33 47.1215 78.33 44.9998Z" fill="#F2740D"/>
<path opacity="0.35" d="M12.83 11.5C12.4322 11.5 12.0507 11.658 11.7694 11.9393C11.4881 12.2206 11.33 12.6022 11.33 13C11.33 13.3978 11.4881 13.7794 11.7694 14.0607C12.0507 14.342 12.4322 14.5 12.83 14.5H25.83C26.2278 14.5 26.6094 14.342 26.8907 14.0607C27.172 13.7794 27.33 13.3978 27.33 13C27.33 12.6022 27.172 12.2206 26.8907 11.9393C26.6094 11.658 26.2278 11.5 25.83 11.5H12.83ZM11.33 18C11.33 17.17 12 16.5 12.83 16.5H21.83C22.2278 16.5 22.6094 16.658 22.8907 16.9393C23.172 17.2206 23.33 17.6022 23.33 18C23.33 18.3978 23.172 18.7794 22.8907 19.0607C22.6094 19.342 22.2278 19.5 21.83 19.5H12.83C12.4322 19.5 12.0507 19.342 11.7694 19.0607C11.4881 18.7794 11.33 18.3978 11.33 18ZM6.33002 8C6.33002 7.17 7.00002 6.5 7.83002 6.5H32.83C33.66 6.5 34.33 7.17 34.33 8V23C34.33 23.83 33.66 24.5 32.83 24.5H29.33V30.5C29.33 30.7786 29.2524 31.0516 29.106 31.2886C28.9595 31.5256 28.75 31.7171 28.5008 31.8416C28.2517 31.9662 27.9728 32.019 27.6953 31.9939C27.4179 31.9689 27.1529 31.8671 26.93 31.7L17.33 24.5H7.83002C7.43219 24.5 7.05066 24.342 6.76936 24.0607C6.48805 23.7794 6.33002 23.3978 6.33002 23V8ZM9.33002 9.5V21.5H17.83C18.15 21.5 18.47 21.6 18.73 21.8L26.33 27.5V21.5H31.33V9.5H9.33002ZM69.83 12.5C69.4322 12.5 69.0507 12.658 68.7694 12.9393C68.4881 13.2206 68.33 13.6022 68.33 14C68.33 14.3978 68.4881 14.7794 68.7694 15.0607C69.0507 15.342 69.4322 15.5 69.83 15.5H82.83C83.2278 15.5 83.6094 15.342 83.8907 15.0607C84.172 14.7794 84.33 14.3978 84.33 14C84.33 13.6022 84.172 13.2206 83.8907 12.9393C83.6094 12.658 83.2278 12.5 82.83 12.5H69.83ZM68.33 19C68.33 18.17 69 17.5 69.83 17.5H77.83C78.2278 17.5 78.6094 17.658 78.8907 17.9393C79.172 18.2206 79.33 18.6022 79.33 19C79.33 19.3978 79.172 19.7794 78.8907 20.0607C78.6094 20.342 78.2278 20.5 77.83 20.5H69.83C69.4322 20.5 69.0507 20.342 68.7694 20.0607C68.4881 19.7794 68.33 19.3978 68.33 19ZM87.83 7.5C88.66 7.5 89.33 8.17 89.33 9V25C89.33 25.83 88.66 26.5 87.83 26.5H76.75L69.6 30.79C69.3722 30.9263 69.1122 30.9997 68.8467 31.0026C68.5812 31.0056 68.3197 30.938 68.0889 30.8068C67.8581 30.6757 67.6662 30.4856 67.5329 30.256C67.3995 30.0264 67.3295 29.7655 67.33 29.5V26.5H64.83C64.4322 26.5 64.0507 26.342 63.7694 26.0607C63.4881 25.7794 63.33 25.3978 63.33 25V9C63.33 8.17 64 7.5 64.83 7.5H87.83ZM86.33 23.5V10.5H66.33V23.5H70.33V26.85L75.56 23.71C75.79 23.57 76.06 23.5 76.33 23.5H86.33ZM43.83 27.5C43.4322 27.5 43.0507 27.658 42.7694 27.9393C42.4881 28.2206 42.33 28.6022 42.33 29C42.33 29.3978 42.4881 29.7794 42.7694 30.0607C43.0507 30.342 43.4322 30.5 43.83 30.5H52.83C53.2278 30.5 53.6094 30.342 53.8907 30.0607C54.172 29.7794 54.33 29.3978 54.33 29C54.33 28.6022 54.172 28.2206 53.8907 27.9393C53.6094 27.658 53.2278 27.5 52.83 27.5H43.83ZM59.33 23C59.33 22.17 58.66 21.5 57.83 21.5H38.83C38 21.5 37.33 22.17 37.33 23V35C37.33 35.83 38 36.5 38.83 36.5H41.33V41C41.3303 41.2965 41.4184 41.5862 41.5832 41.8327C41.7481 42.0791 41.9822 42.2712 42.2562 42.3846C42.5301 42.498 42.8315 42.5277 43.1223 42.4699C43.4131 42.4122 43.6802 42.2695 43.89 42.06L49.45 36.5H57.83C58.66 36.5 59.33 35.83 59.33 35V23ZM40.33 24.5H56.33V33.5H48.21L44.33 37.38V33.5H40.33V24.5Z" fill="#F2740D"/>
</g>
<defs>
<clipPath id="clip0_1_346">
<rect width="96" height="96" fill="white" transform="translate(0.330017 0.5)"/>
</clipPath>
</defs>
</svg>
