<svg width="174" height="41" viewBox="0 0 174 41" fill="none" xmlns="http://www.w3.org/2000/svg">
<g filter="url(#filter0_d_1_249)">
<g clip-path="url(#clip0_1_249)">
<path fill-rule="evenodd" clip-rule="evenodd" d="M24.1934 13.241C26.1385 15.1955 27.7287 18.3958 26.8184 20.297C24.3839 25.3818 6.21995 34.2989 4.67682 32.7559C3.13378 31.2128 12.0578 13.0421 17.1426 10.6076C19.0441 9.69705 22.2449 11.288 24.1994 13.2334C24.1994 13.2334 24.1974 13.2359 24.1934 13.241Z" fill="#FF8200"/>
<path fill-rule="evenodd" clip-rule="evenodd" d="M33.8165 11.0943C33.5002 9.92471 32.6943 8.74308 31.491 8.60313C29.2841 8.34641 25.805 12.2483 26.0532 13.1745C26.3014 14.1006 31.2162 15.733 33.0522 14.4135C33.9985 13.7334 34.1316 12.2643 33.8208 11.0932L33.8165 11.0943ZM26.9859 0.283783C28.6255 0.727421 30.2817 1.85751 30.4778 3.54443C30.8376 6.63858 25.3671 11.5162 24.0685 11.1683C22.77 10.8203 20.4813 3.92959 22.3313 1.35541C23.2849 0.0286521 25.3447 -0.158032 26.9866 0.27785C26.9866 0.27785 26.9864 0.279847 26.9859 0.283783Z" fill="#43B02A"/>
<path fill-rule="evenodd" clip-rule="evenodd" d="M75.8621 18.6001L74.2374 18.3538C72.6893 18.1254 71.793 17.6242 71.793 16.7111C71.793 15.6643 72.9595 15.014 74.6842 15.014C75.9039 15.014 76.8967 15.4711 77.8471 15.9553L78.0362 16.0512C78.2557 16.1626 78.4911 16.219 78.7358 16.219C79.3 16.219 79.8197 15.9126 80.0912 15.4194L80.224 15.1795C80.4347 14.798 80.4797 14.3585 80.35 13.9421C80.221 13.5269 79.9367 13.1914 79.549 12.9972C78.1643 12.3037 76.6625 11.6814 74.6842 11.6814C70.5497 11.6814 67.8861 13.6777 67.8861 16.8914C67.8861 19.5292 69.7818 21.1828 73.3691 21.6735L75.0082 21.8868C76.7402 22.1298 77.5823 22.6423 77.5823 23.4539C77.5823 24.2037 77.1769 25.2004 74.494 25.2004C73.0151 25.2004 71.5133 24.8251 70.2941 24.0527C70.051 23.8987 69.7702 23.8173 69.4826 23.8173C68.9474 23.8173 68.4393 24.1013 68.1566 24.5588L68.0656 24.7066C67.8388 25.0735 67.7706 25.5237 67.8784 25.9418C67.9861 26.359 68.2504 26.704 68.6226 26.9133C70.7483 28.1086 73.2017 28.5328 74.494 28.5328C78.8042 28.5328 81.4727 26.6433 81.4727 23.3193C81.4727 20.6593 79.585 19.1347 75.8621 18.6001Z" fill="#43B02A"/>
<path fill-rule="evenodd" clip-rule="evenodd" d="M125.981 24.406C125.67 24.0587 125.224 23.8595 124.757 23.8595C124.442 23.8595 124.133 23.9494 123.866 24.1195C122.988 24.6762 122.027 24.9705 121.085 24.9705C118.495 24.9705 116.615 22.9252 116.615 20.1071C116.615 17.2891 118.495 15.2436 121.085 15.2436C122.079 15.2436 122.969 15.5137 123.805 16.0697C124.452 16.5 125.381 16.3898 125.914 15.8218L126.052 15.6748C126.416 15.2857 126.59 14.7582 126.527 14.2279C126.467 13.7069 126.183 13.2432 125.75 12.9558C124.476 12.1114 122.897 11.665 121.184 11.665C116.213 11.665 112.741 15.1366 112.741 20.1071C112.741 25.0778 116.213 28.5494 121.184 28.5494C122.904 28.5494 124.492 28.0939 125.774 27.2324C126.203 26.9445 126.485 26.4845 126.55 25.9701C126.614 25.4515 126.452 24.9313 126.104 24.5425L125.981 24.406Z" fill="#43B02A"/>
<path fill-rule="evenodd" clip-rule="evenodd" d="M45.5369 5.95312C44.2431 5.95312 43.2297 6.97947 43.2297 8.28966C43.2297 9.60494 44.2215 10.5968 45.5369 10.5968C46.8471 10.5968 47.8732 9.58349 47.8732 8.28966C47.8732 6.97947 46.8471 5.95312 45.5369 5.95312Z" fill="#43B02A"/>
<path fill-rule="evenodd" clip-rule="evenodd" d="M46.235 11.8018H44.8739C44.207 11.8018 43.6665 12.3423 43.6665 13.009V26.9314C43.6665 27.5984 44.2073 28.1391 44.8743 28.1391H46.2345C46.9016 28.1391 47.4423 27.5984 47.4423 26.9314V13.009C47.4423 12.3423 46.9017 11.8018 46.235 11.8018Z" fill="#43B02A"/>
<path fill-rule="evenodd" clip-rule="evenodd" d="M90.9167 24.8982C89.3897 24.8923 87.6144 23.6953 87.6144 21.5996V15.3198H90.9287C91.5954 15.3198 92.1362 14.7791 92.1362 14.112V13.0097C92.1362 12.3426 91.5954 11.8019 90.9287 11.8019H87.6144V8.17779C87.6144 7.51067 87.0737 6.96997 86.4069 6.96997H84.9707C84.3039 6.96997 83.7632 7.51067 83.7632 8.17779V21.3747C83.7632 25.1737 86.6462 28.5329 90.6384 28.5329H90.6399C91.0382 28.5329 91.4132 28.3769 91.6967 28.0936C91.9802 27.8103 92.1362 27.4349 92.1362 27.0365V26.106C92.1362 25.4354 91.5879 24.9008 90.9167 24.8982Z" fill="#43B02A"/>
<path fill-rule="evenodd" clip-rule="evenodd" d="M57.9373 11.665C53.1055 11.665 50.4111 15.5293 50.4111 18.8364V26.9314C50.4111 27.5983 50.9519 28.1391 51.6189 28.1391H52.9956C53.6626 28.1391 54.2034 27.5983 54.2034 26.9314V19.444C54.2034 16.9372 55.7223 15.2766 57.9373 15.2766C60.1524 15.2766 61.6713 16.9372 61.6713 19.444V26.9314C61.6713 27.5983 62.212 28.1391 62.8791 28.1391H64.2556C64.9227 28.1391 65.4634 27.5983 65.4634 26.9314V18.8364C65.4634 15.5293 62.769 11.665 57.9373 11.665Z" fill="#43B02A"/>
<path fill-rule="evenodd" clip-rule="evenodd" d="M157.321 11.8327C156.797 11.7184 155.484 11.665 154.805 11.665C154.743 11.665 154.683 11.6672 154.624 11.6672C150.882 11.6672 147.428 14.7172 147.428 18.9208C147.428 18.9243 147.428 18.9283 147.428 18.9314V19.0105V26.9314C147.428 27.5983 147.968 28.1391 148.635 28.1391H150.011C150.679 28.1391 151.22 27.5983 151.22 26.9314V19.0592C151.22 16.7707 152.853 15.2789 154.856 15.2789C155.222 15.2846 155.615 15.3258 156.001 15.402C156.106 15.4227 156.212 15.4331 156.319 15.4331C157.082 15.4331 157.744 14.9057 157.923 14.1629C158.021 13.755 158.093 13.4511 158.162 13.1737C158.23 12.8964 158.183 12.5819 158.024 12.3277C157.865 12.0727 157.615 11.8969 157.321 11.8327Z" fill="#43B02A"/>
<path fill-rule="evenodd" clip-rule="evenodd" d="M167.417 15.3198C168.084 15.3198 168.625 14.7791 168.625 14.112V13.0097C168.625 12.3426 168.084 11.8019 167.417 11.8019H164.104V8.17779C164.104 7.51067 163.563 6.96997 162.896 6.96997H161.46C160.793 6.96997 160.252 7.51067 160.252 8.17779V21.3747C160.252 25.1737 163.135 28.5329 167.127 28.5329H167.129C167.527 28.5329 167.903 28.3769 168.185 28.0936C168.469 27.8103 168.625 27.4349 168.625 27.0365V26.106C168.625 25.4354 168.077 24.9008 167.406 24.8982C165.878 24.8923 164.104 23.6953 164.104 21.5996V15.3198H167.417Z" fill="#43B02A"/>
<path fill-rule="evenodd" clip-rule="evenodd" d="M141.146 12.9604C141.144 12.9589 141.142 12.9572 141.14 12.9558C139.866 12.1114 138.287 11.665 136.574 11.665C136.544 11.665 136.514 11.6668 136.485 11.667C136.455 11.6668 136.426 11.665 136.396 11.665C134.682 11.665 133.103 12.1114 131.83 12.9558C131.828 12.9572 131.826 12.9589 131.824 12.9604C129.531 14.4031 128.131 16.9523 128.131 20.1071C128.131 23.412 129.667 26.0525 132.157 27.4522C133.317 28.1374 134.696 28.5459 136.181 28.547C138.893 28.549 140.531 27.012 141.047 26.341V26.9194C141.047 27.5865 141.587 28.1272 142.254 28.1272H143.631C144.298 28.1272 144.839 27.5865 144.839 26.9194V20.1071C144.839 16.9523 143.438 14.4031 141.146 12.9604ZM138.002 24.7172C137.561 24.8632 137.112 24.9476 136.665 24.9663C136.633 24.9674 136.6 24.9682 136.567 24.9687C136.54 24.9693 136.512 24.9703 136.485 24.9703C136.457 24.9703 136.43 24.9693 136.403 24.9687C136.37 24.9682 136.337 24.9674 136.304 24.9663C135.858 24.9476 135.409 24.8632 134.968 24.7172C133.187 24.0886 132.005 22.3414 132.005 20.1071C132.005 17.4688 133.653 15.5079 135.989 15.2685C136.001 15.2673 136.013 15.2663 136.025 15.2652C136.079 15.2602 136.132 15.2565 136.185 15.2533C136.215 15.2515 136.245 15.2497 136.276 15.2485C136.327 15.2464 136.379 15.2452 136.431 15.2447C136.449 15.2445 136.467 15.2438 136.485 15.2437C136.503 15.2438 136.521 15.2445 136.539 15.2447C136.591 15.2452 136.643 15.2464 136.694 15.2485C136.724 15.2497 136.754 15.2515 136.785 15.2533C136.838 15.2565 136.892 15.2602 136.944 15.2652C136.957 15.2663 136.969 15.2673 136.982 15.2685C139.316 15.5079 140.964 17.4688 140.964 20.1071C140.964 22.3414 139.782 24.0886 138.002 24.7172Z" fill="#43B02A"/>
<path fill-rule="evenodd" clip-rule="evenodd" d="M106.785 12.9604C106.783 12.9589 106.781 12.9572 106.779 12.9558C105.506 12.1114 103.927 11.665 102.212 11.665C102.183 11.665 102.154 11.6668 102.124 11.667C102.095 11.6668 102.065 11.665 102.035 11.665C100.322 11.665 98.7428 12.1114 97.4693 12.9558C97.467 12.9572 97.4648 12.9589 97.4625 12.9604C95.1698 14.4031 93.7703 16.9523 93.7703 20.1071C93.7703 23.412 95.3063 26.0525 97.7955 27.4522C98.9565 28.1374 100.334 28.5459 101.82 28.547C104.533 28.549 106.17 27.012 106.685 26.341V26.9194C106.685 27.5865 107.226 28.1272 107.894 28.1272H109.27C109.937 28.1272 110.477 27.5865 110.477 26.9194V20.1071C110.477 16.9523 109.078 14.4031 106.785 12.9604ZM103.641 24.7172C103.2 24.8632 102.751 24.9476 102.305 24.9663C102.272 24.9674 102.239 24.9682 102.206 24.9687C102.179 24.9693 102.152 24.9703 102.124 24.9703C102.097 24.9703 102.069 24.9693 102.042 24.9687C102.009 24.9682 101.976 24.9674 101.944 24.9663C101.497 24.9476 101.048 24.8632 100.607 24.7172C98.8268 24.0886 97.6448 22.3414 97.6448 20.1071C97.6448 17.4688 99.2918 15.5079 101.627 15.2685C101.64 15.2673 101.652 15.2663 101.665 15.2652C101.717 15.2602 101.771 15.2565 101.824 15.2533C101.854 15.2515 101.885 15.2497 101.915 15.2485C101.966 15.2464 102.018 15.2452 102.07 15.2447C102.088 15.2445 102.106 15.2438 102.124 15.2437C102.142 15.2438 102.16 15.2445 102.178 15.2447C102.23 15.2452 102.282 15.2464 102.333 15.2485C102.364 15.2497 102.394 15.2515 102.424 15.2533C102.477 15.2565 102.53 15.2602 102.584 15.2652C102.596 15.2663 102.608 15.2673 102.62 15.2685C104.956 15.5079 106.604 17.4688 106.604 20.1071C106.604 22.3414 105.422 24.0886 103.641 24.7172Z" fill="#43B02A"/>
</g>
</g>
<defs>
<filter id="filter0_d_1_249" x="0.5" y="0" width="173" height="41" filterUnits="userSpaceOnUse" color-interpolation-filters="sRGB">
<feFlood flood-opacity="0" result="BackgroundImageFix"/>
<feColorMatrix in="SourceAlpha" type="matrix" values="0 0 0 0 0 0 0 0 0 0 0 0 0 0 0 0 0 0 127 0" result="hardAlpha"/>
<feOffset dy="4"/>
<feGaussianBlur stdDeviation="2"/>
<feComposite in2="hardAlpha" operator="out"/>
<feColorMatrix type="matrix" values="0 0 0 0 0 0 0 0 0 0 0 0 0 0 0 0 0 0 0.25 0"/>
<feBlend mode="normal" in2="BackgroundImageFix" result="effect1_dropShadow_1_249"/>
<feBlend mode="normal" in="SourceGraphic" in2="effect1_dropShadow_1_249" result="shape"/>
</filter>
<clipPath id="clip0_1_249">
<rect width="165" height="33" fill="white" transform="translate(4.5)"/>
</clipPath>
</defs>
</svg>
