<svg width="180" height="33" viewBox="0 0 180 33" fill="none" xmlns="http://www.w3.org/2000/svg">
<g clip-path="url(#clip0_1_210)">
<mask id="mask0_1_210" style="mask-type:luminance" maskUnits="userSpaceOnUse" x="0" y="0" width="180" height="33">
<path d="M0 0.000488281H179.02V32.9996H0V0.000488281Z" fill="white"/>
</mask>
<g mask="url(#mask0_1_210)">
<path d="M60.7278 0.659506H51.1097V13.2499H41.0977V0.659506H31.4797V32.3357H41.0977V19.8759H51.1097V32.3357H60.7278V0.659506ZM94.1851 25.9708V0.659506H84.5667V32.3357H101.958L103.404 25.9708H94.1851ZM77.4563 0.659506H67.8383V32.3357H77.4563V0.659506ZM116.448 0.659506H106.835V32.3357H116.448V0.659506ZM163.866 8.74395C163.866 7.01995 165.581 6.22322 168.344 6.22322C171.375 6.22322 174.671 6.88942 176.91 7.8212L176.121 0.925086C173.614 0.393923 171.375 -0.00219727 167.295 -0.00219727C159.522 -0.00219727 154.253 3.08125 154.253 9.54071C154.253 20.6726 169.275 18.4219 169.275 23.5896C169.275 25.5746 167.82 26.6325 164.264 26.6325C161.108 26.6325 156.227 25.5746 153.33 24.1162L154.387 31.4085C157.283 32.4708 161.233 32.9974 164.399 32.9974C172.432 32.9974 179.018 30.3461 179.018 22.3922C179.018 11.7959 163.866 13.781 163.866 8.74395ZM136.736 24.7824C145.687 24.7824 151.355 20.1415 151.355 12.057C151.355 3.18028 145.297 -0.00219727 135.415 -0.00219727C131.595 -0.00219727 126.984 0.263384 123.692 0.659506V32.3357H133.31V24.7824H136.736ZM141.872 12.192C141.872 16.2973 139.897 19.0836 134.886 19.0836H133.31V5.99365C133.87 5.96213 134.394 5.96213 134.886 5.96213C139.628 5.96213 141.872 8.21282 141.872 12.192ZM13.0407 24.7824C21.9961 24.7824 27.6603 20.1415 27.6603 12.057C27.6603 3.18028 21.602 -0.00219727 11.7243 -0.00219727C7.90043 -0.00219727 3.29292 0.263384 -0.00262451 0.659506V32.3357H9.61535V24.7824H13.0407ZM18.1811 12.192C18.1811 16.2973 16.202 19.0836 11.196 19.0836H9.61535V5.99365C10.1751 5.96213 10.7034 5.96213 11.196 5.96213C15.9378 5.96213 18.1811 8.21282 18.1811 12.192Z" fill="#0065D3"/>
</g>
</g>
<defs>
<clipPath id="clip0_1_210">
<rect width="179.02" height="32.9991" fill="white" transform="translate(0 0.000488281)"/>
</clipPath>
</defs>
</svg>
