<svg width="49" height="49" viewBox="0 0 49 49" fill="none" xmlns="http://www.w3.org/2000/svg">
<g clip-path="url(#clip0_1_292)">
<path opacity="0.2" d="M14.27 28.3401C14.8609 28.3401 15.4461 28.2237 15.992 27.9975C16.538 27.7714 17.0341 27.4399 17.4519 27.0221C17.8698 26.6042 18.2013 26.1081 18.4274 25.5622C18.6536 25.0162 18.77 24.431 18.77 23.8401C18.77 23.2491 18.6536 22.664 18.4274 22.118C18.2013 21.572 17.8698 21.076 17.4519 20.6581C17.0341 20.2402 16.538 19.9088 15.992 19.6826C15.4461 19.4565 14.8609 19.3401 14.27 19.3401C13.0765 19.3401 11.9319 19.8142 11.088 20.6581C10.2441 21.502 9.76996 22.6466 9.76996 23.8401C9.76996 25.0336 10.2441 26.1782 11.088 27.0221C11.9319 27.866 13.0765 28.3401 14.27 28.3401ZM7.76996 30.3401C7.76996 30.0749 7.87532 29.8205 8.06285 29.633C8.25039 29.4454 8.50474 29.3401 8.76996 29.3401H19.77C20.0352 29.3401 20.2895 29.4454 20.4771 29.633C20.6646 29.8205 20.77 30.0749 20.77 30.3401V35.3401H31.77V30.3401C31.77 30.0749 31.8753 29.8205 32.0629 29.633C32.2504 29.4454 32.5047 29.3401 32.77 29.3401H44.77C45.0352 29.3401 45.2895 29.4454 45.4771 29.633C45.6646 29.8205 45.77 30.0749 45.77 30.3401V40.3401C45.77 40.8705 45.5592 41.3792 45.1842 41.7543C44.8091 42.1294 44.3004 42.3401 43.77 42.3401H33.77V47.3401C33.77 47.6053 33.6646 47.8597 33.4771 48.0472C33.2895 48.2347 33.0352 48.3401 32.77 48.3401H20.77C20.5047 48.3401 20.2504 48.2347 20.0629 48.0472C19.8753 47.8597 19.77 47.6053 19.77 47.3401V42.3401H8.76996C8.50474 42.3401 8.25039 42.2347 8.06285 42.0472C7.87532 41.8597 7.76996 41.6053 7.76996 41.3401V30.3401ZM32.77 23.8401C32.77 25.0336 33.2441 26.1782 34.088 27.0221C34.9319 27.866 36.0765 28.3401 37.27 28.3401C38.4634 28.3401 39.608 27.866 40.4519 27.0221C41.2959 26.1782 41.77 25.0336 41.77 23.8401C41.77 22.6466 41.2959 21.502 40.4519 20.6581C39.608 19.8142 38.4634 19.3401 37.27 19.3401C36.0765 19.3401 34.9319 19.8142 34.088 20.6581C33.2441 21.502 32.77 22.6466 32.77 23.8401ZM25.27 34.3401C26.4634 34.3401 27.608 33.866 28.4519 33.0221C29.2959 32.1782 29.77 31.0336 29.77 29.8401C29.77 28.6466 29.2959 27.502 28.4519 26.6581C27.608 25.8142 26.4634 25.3401 25.27 25.3401C24.0765 25.3401 22.9319 25.8142 22.088 26.6581C21.2441 27.502 20.77 28.6466 20.77 29.8401C20.77 31.0336 21.2441 32.1782 22.088 33.0221C22.9319 33.866 24.0765 34.3401 25.27 34.3401Z" fill="#F2740D"/>
<path d="M17.17 26.4201C17.9609 25.5676 18.4871 24.5035 18.6844 23.3575C18.8817 22.2114 18.7417 21.0326 18.2815 19.9647C17.8212 18.8967 17.0605 17.9855 16.0918 17.3419C15.1232 16.6983 13.9884 16.3501 12.8255 16.3396C11.6626 16.3291 10.5217 16.6568 9.54165 17.2828C8.56156 17.9088 7.78453 18.8062 7.30507 19.8657C6.8256 20.9252 6.66438 22.1012 6.84101 23.2506C7.01764 24.4001 7.52451 25.4735 8.29996 26.3401C6.40996 26.4001 4.76996 27.8601 4.76996 29.7901V40.3401C4.76996 40.6053 4.87532 40.8597 5.06285 41.0472C5.25039 41.2348 5.50474 41.3401 5.76996 41.3401H14.77C15.0352 41.3401 15.2895 41.2348 15.4771 41.0472C15.6646 40.8597 15.77 40.6053 15.77 40.3401C15.77 40.0749 15.6646 39.8206 15.4771 39.633C15.2895 39.4455 15.0352 39.3401 14.77 39.3401H10.77V32.3401C10.77 32.0749 10.6646 31.8206 10.4771 31.633C10.2895 31.4455 10.0352 31.3401 9.76996 31.3401C9.50474 31.3401 9.25039 31.4455 9.06285 31.633C8.87532 31.8206 8.76996 32.0749 8.76996 32.3401V39.3401H6.76996V29.7901C6.76996 29.0601 7.43996 28.3401 8.40996 28.3401H16.77C17.0012 28.342 17.2259 28.2637 17.4058 28.1186C17.5858 27.9735 17.7099 27.7705 17.7571 27.5441C17.8043 27.3178 17.7715 27.0821 17.6645 26.8772C17.5574 26.6722 17.3827 26.5107 17.17 26.4201ZM12.77 18.3401C13.8308 18.3401 14.8482 18.7616 15.5984 19.5117C16.3485 20.2618 16.77 21.2793 16.77 22.3401C16.77 23.401 16.3485 24.4184 15.5984 25.1686C14.8482 25.9187 13.8308 26.3401 12.77 26.3401C11.7091 26.3401 10.6917 25.9187 9.94153 25.1686C9.19139 24.4184 8.76996 23.401 8.76996 22.3401C8.76996 21.2793 9.19139 20.2618 9.94153 19.5117C10.6917 18.7616 11.7091 18.3401 12.77 18.3401ZM29.24 32.3401C30.0128 31.477 30.5192 30.4086 30.698 29.264C30.8769 28.1194 30.7205 26.9474 30.2478 25.8897C29.7752 24.832 29.0064 23.9338 28.0343 23.3035C27.0622 22.6731 25.9285 22.3377 24.77 22.3377C23.6114 22.3377 22.4777 22.6731 21.5056 23.3035C20.5336 23.9338 19.7648 24.832 19.2921 25.8897C18.8194 26.9474 18.663 28.1194 18.8419 29.264C19.0207 30.4086 19.5271 31.477 20.3 32.3401C19.3744 32.3578 18.4912 32.7313 17.8339 33.3831C17.1765 34.0348 16.7955 34.9148 16.77 35.8401V46.3401C16.77 46.6053 16.8753 46.8597 17.0629 47.0472C17.2504 47.2348 17.5047 47.3401 17.77 47.3401H31.77C32.0352 47.3401 32.2895 47.2348 32.4771 47.0472C32.6646 46.8597 32.77 46.6053 32.77 46.3401V35.8401C32.77 33.9001 31.13 32.4201 29.24 32.3401ZM20.77 28.3401C20.77 27.2793 21.1914 26.2618 21.9415 25.5117C22.6917 24.7616 23.7091 24.3401 24.77 24.3401C25.8308 24.3401 26.8482 24.7616 27.5984 25.5117C28.3485 26.2618 28.77 27.2793 28.77 28.3401C28.77 29.401 28.3485 30.4184 27.5984 31.1686C26.8482 31.9187 25.8308 32.3401 24.77 32.3401C23.7091 32.3401 22.6917 31.9187 21.9415 31.1686C21.1914 30.4184 20.77 29.401 20.77 28.3401ZM20.47 34.3401H29.07C30.07 34.3401 30.77 35.0901 30.77 35.8401V45.3401H28.77V38.3401C28.77 38.0749 28.6646 37.8206 28.4771 37.633C28.2895 37.4455 28.0352 37.3401 27.77 37.3401C27.5047 37.3401 27.2504 37.4455 27.0629 37.633C26.8753 37.8206 26.77 38.0749 26.77 38.3401V45.3401H22.77V38.3401C22.77 38.0749 22.6646 37.8206 22.4771 37.633C22.2895 37.4455 22.0352 37.3401 21.77 37.3401C21.5047 37.3401 21.2504 37.4455 21.0629 37.633C20.8753 37.8206 20.77 38.0749 20.77 38.3401V45.3401H18.77V35.8401C18.77 35.0901 19.47 34.3401 20.47 34.3401ZM42.77 22.3401C42.77 23.8801 42.19 25.2801 41.24 26.3401C42.1648 26.3321 43.0552 26.6905 43.7167 27.3369C44.3781 27.9834 44.7568 28.8653 44.77 29.7901V40.3401C44.77 40.6053 44.6646 40.8597 44.4771 41.0472C44.2895 41.2348 44.0352 41.3401 43.77 41.3401H34.77C34.5047 41.3401 34.2504 41.2348 34.0629 41.0472C33.8753 40.8597 33.77 40.6053 33.77 40.3401C33.77 40.0749 33.8753 39.8206 34.0629 39.633C34.2504 39.4455 34.5047 39.3401 34.77 39.3401H38.77V32.3401C38.77 32.0749 38.8753 31.8206 39.0629 31.633C39.2504 31.4455 39.5047 31.3401 39.77 31.3401C40.0352 31.3401 40.2895 31.4455 40.4771 31.633C40.6646 31.8206 40.77 32.0749 40.77 32.3401V39.3401H42.77V29.7901C42.7569 29.3976 42.5904 29.0258 42.3062 28.7546C42.0219 28.4835 41.6427 28.3347 41.25 28.3401H32.77C32.5388 28.342 32.3141 28.2637 32.1341 28.1186C31.9541 27.9735 31.83 27.7705 31.7828 27.5441C31.7357 27.3178 31.7684 27.0821 31.8754 26.8772C31.9825 26.6722 32.1572 26.5107 32.37 26.4201C31.7057 25.7036 31.2264 24.8357 30.9739 23.8918C30.7213 22.948 30.7031 21.9567 30.9208 21.0042C31.1384 20.0516 31.5855 19.1667 32.2229 18.4262C32.8604 17.6858 33.6691 17.1122 34.5787 16.7554C35.4883 16.3985 36.4713 16.2692 37.4422 16.3787C38.4131 16.4882 39.3426 16.8331 40.1499 17.3835C40.9572 17.9339 41.6179 18.6731 42.0745 19.537C42.5311 20.4008 42.7698 21.3631 42.77 22.3401ZM40.77 22.3401C40.77 21.2793 40.3485 20.2618 39.5984 19.5117C38.8482 18.7616 37.8308 18.3401 36.77 18.3401C35.7091 18.3401 34.6917 18.7616 33.9415 19.5117C33.1914 20.2618 32.77 21.2793 32.77 22.3401C32.77 23.401 33.1914 24.4184 33.9415 25.1686C34.6917 25.9187 35.7091 26.3401 36.77 26.3401C37.8308 26.3401 38.8482 25.9187 39.5984 25.1686C40.3485 24.4184 40.77 23.401 40.77 22.3401Z" fill="#F2740D"/>
<g opacity="0.35">
<path d="M17.77 10.3401C17.77 10.0749 17.8753 9.82052 18.0629 9.63298C18.2504 9.44544 18.5047 9.34009 18.77 9.34009H30.77C31.0352 9.34009 31.2895 9.44544 31.4771 9.63298C31.6646 9.82052 31.77 10.0749 31.77 10.3401C31.77 10.6053 31.6646 10.8597 31.4771 11.0472C31.2895 11.2347 31.0352 11.3401 30.77 11.3401H18.77C18.5047 11.3401 18.2504 11.2347 18.0629 11.0472C17.8753 10.8597 17.77 10.6053 17.77 10.3401ZM18.77 5.34009C18.5047 5.34009 18.2504 5.44544 18.0629 5.63298C17.8753 5.82052 17.77 6.07487 17.77 6.34009C17.77 6.6053 17.8753 6.85966 18.0629 7.04719C18.2504 7.23473 18.5047 7.34009 18.77 7.34009H30.77C31.0352 7.34009 31.2895 7.23473 31.4771 7.04719C31.6646 6.85966 31.77 6.6053 31.77 6.34009C31.77 6.07487 31.6646 5.82052 31.4771 5.63298C31.2895 5.44544 31.0352 5.34009 30.77 5.34009H18.77ZM14.77 1.34009C14.5047 1.34009 14.2504 1.44544 14.0629 1.63298C13.8753 1.82052 13.77 2.07487 13.77 2.34009V14.3401C13.77 14.6053 13.8753 14.8597 14.0629 15.0472C14.2504 15.2347 14.5047 15.3401 14.77 15.3401H19.86L24.06 19.5401C24.1562 19.6375 24.2714 19.7141 24.3985 19.7651C24.5256 19.8162 24.6618 19.8406 24.7986 19.8368C24.9355 19.8331 25.0702 19.8012 25.1942 19.7433C25.3183 19.6854 25.4292 19.6026 25.52 19.5001L29.22 15.3401H34.77C35.0352 15.3401 35.2895 15.2347 35.4771 15.0472C35.6646 14.8597 35.77 14.6053 35.77 14.3401V2.34009C35.77 2.07487 35.6646 1.82052 35.4771 1.63298C35.2895 1.44544 35.0352 1.34009 34.77 1.34009H14.77ZM15.77 13.3401V3.34009H33.77V13.3401H28.77C28.628 13.3403 28.4877 13.3707 28.3583 13.4293C28.229 13.4879 28.1137 13.5734 28.02 13.6801L24.72 17.3801L20.98 13.6301C20.8865 13.5374 20.7757 13.4641 20.6539 13.4143C20.532 13.3646 20.4016 13.3393 20.27 13.3401H15.77Z" fill="#F2740D"/>
</g>
</g>
<defs>
<clipPath id="clip0_1_292">
<rect width="48" height="48" fill="white" transform="translate(0.769958 0.340088)"/>
</clipPath>
</defs>
</svg>
