<svg width="49" height="49" viewBox="0 0 49 49" fill="none" xmlns="http://www.w3.org/2000/svg">
<g clip-path="url(#clip0_1_258)">
<path opacity="0.2" d="M35.26 11.8C33.1628 11.8847 31.1555 12.6739 29.5623 14.0403C27.9691 15.4067 26.8832 17.2703 26.48 19.33C26.48 19.65 26.48 19.65 26.48 19.33C25.9594 17.2427 24.775 15.3808 23.105 14.0246C21.435 12.6684 19.3698 11.8913 17.22 11.81C15.8325 11.7555 14.4496 12.0027 13.1669 12.5344C11.8841 13.0662 10.732 13.8699 9.78998 14.89C8.85844 15.9013 8.16272 17.1066 7.75291 18.419C7.3431 19.7314 7.22939 21.1184 7.41998 22.48C7.41998 31.44 19.44 39.7101 24.15 43.0201C24.7814 43.5256 25.5661 43.801 26.375 43.801C27.1838 43.801 27.9686 43.5256 28.6 43.0201C32.93 39.87 45.33 31.44 45.33 22.48C45.33 17.78 43.93 11.8 35.26 11.8Z" fill="#F2740D"/>
<path d="M6.24998 11.1599C7.24526 9.98136 8.50244 9.05192 9.92104 8.44594C11.3396 7.83995 12.8803 7.5742 14.42 7.66995H14.43C18.26 7.83995 21.65 9.95995 23.49 13.1399C24.3497 11.5462 25.6095 10.2037 27.1454 9.24461C28.6814 8.2855 30.4406 7.74282 32.25 7.66995C36.85 7.66995 39.73 9.28995 41.4 11.7399C43.02 14.1099 43.37 17.0599 43.37 19.4799C43.37 24.4499 40 29.0799 36.36 32.7299C33.2582 35.742 29.9061 38.4852 26.34 40.9299C25.5195 41.5813 24.5026 41.9359 23.455 41.9359C22.4073 41.9359 21.3905 41.5813 20.57 40.9299L20.09 40.5899C16.6096 38.2296 13.3317 35.5838 10.29 32.6799C6.61998 29.0399 3.28998 24.4499 3.28998 19.4799V19.4399C3.38998 16.3599 4.36998 13.3699 6.24998 11.1599ZM22.43 16.4999C21.9648 14.6808 20.9256 13.0602 19.4664 11.8784C18.0073 10.6967 16.206 10.0169 14.33 9.93995C13.1336 9.85706 11.9345 10.0585 10.8309 10.5278C9.72725 10.997 8.75032 11.7208 7.97998 12.6399C6.43386 14.5944 5.58243 17.008 5.55998 19.4999C5.55998 23.4899 8.30998 27.4999 11.89 31.0699C14.845 33.8893 18.0293 36.4582 21.41 38.7499L21.91 39.0999L21.97 39.1399C22.3975 39.4844 22.9314 39.6696 23.4804 39.6642C24.0293 39.6587 24.5594 39.4628 24.98 39.1099L25.73 38.5599C28.01 36.8999 31.59 34.2999 34.75 31.1299C38.33 27.5399 41.1 23.4799 41.1 19.4799C41.1 17.1999 40.75 14.8199 39.53 13.0199C38.36 11.3199 36.26 9.94995 32.28 9.93995C30.4262 10.0256 28.6576 10.7428 27.2678 11.9726C25.878 13.2023 24.9507 14.8704 24.64 16.6999L24.6 16.8199L24.49 17.0199C24.43 17.0799 24.28 17.2399 24.17 17.3199C23.9489 17.4185 23.7117 17.4761 23.47 17.4899C23.2629 17.4482 23.0638 17.374 22.88 17.2699C22.8 17.2099 22.68 17.0899 22.64 17.0299C22.5874 16.9501 22.5406 16.8665 22.5 16.7799C22.4751 16.7013 22.455 16.6211 22.44 16.5399V16.5099L22.43 16.4999Z" fill="#F2740D"/>
</g>
<defs>
<clipPath id="clip0_1_258">
<rect width="48" height="48" fill="white" transform="translate(0.329956 0.800049)"/>
</clipPath>
</defs>
</svg>
