<svg width="97" height="97" viewBox="0 0 97 97" fill="none" xmlns="http://www.w3.org/2000/svg">
<g clip-path="url(#clip0_1_324)">
<path opacity="0.2" d="M93.02 20.49C93.0174 17.8396 91.9626 15.2986 90.0876 13.4254C88.2125 11.5522 85.6705 10.5 83.02 10.5H16.02C14.1635 10.5 12.383 11.2375 11.0703 12.5503C9.75752 13.863 9.02002 15.6435 9.02002 17.5V90.5L20.99 77.94L21.43 77.5H83.02C85.6705 77.5 88.2125 76.4478 90.0876 74.5746C91.9626 72.7014 93.0174 70.1604 93.02 67.51V20.5V20.49ZM67.42 69.22C63.67 68.06 59.75 66.58 56.93 63.76C54.0334 64.8707 50.952 65.4205 47.85 65.38C34.41 66.04 25.19 54.8 25.19 41.74C24.45 28.87 34.23 17.46 47.49 18.1C50.4717 17.9701 53.4479 18.4613 56.2298 19.5423C59.0116 20.6234 61.5385 22.2708 63.65 24.38C67.71 28.59 69.63 34.43 69.63 41.74C69.63 45.58 69.03 49.06 68 52.01C67.2552 53.9444 66.2383 55.7627 64.98 57.41C67.14 58.78 69.52 59.64 71.91 60.51L67.41 69.22H67.42Z" fill="#9199A1"/>
<path d="M17.16 71.5H78.27C79.57 71.5 80.89 71.4 82.05 71.1C82.9707 70.9217 83.8269 70.5005 84.53 69.88C86.0661 68.3003 86.9545 66.2024 87.02 64V15C87.02 13.15 86.2 11.48 84.52 9.8C83.0463 8.33053 81.0512 7.5037 78.97 7.5H13.71C9.31002 7.5 6.02002 10.74 6.02002 15V83.4L17.16 71.5ZM3.02002 91V15C3.02002 9.02 7.72002 4.5 13.71 4.5H78.96C81.84 4.5 84.61 5.65 86.65 7.69C88.69 9.72 90.02 12.12 90.02 15V64C89.954 66.998 88.7491 69.8584 86.65 72C84.61 74.04 81.15 74.5 78.27 74.5H18.46L3.02002 91ZM65.09 47.35C66.1439 44.2127 66.6578 40.9193 66.61 37.61C66.61 30.6 64.71 25.16 61.01 21.31C59.0409 19.3333 56.6781 17.7927 54.0749 16.7883C51.4718 15.7839 48.6866 15.3382 45.9 15.48C43.0958 15.3336 40.2921 15.7758 37.6691 16.7782C35.0461 17.7805 32.6619 19.3208 30.67 21.3C26.7181 25.7811 24.7043 31.6464 25.07 37.61C25.07 44.63 26.97 50.07 30.67 53.93C32.7056 55.9258 35.1362 57.4737 37.8056 58.4743C40.4749 59.4749 43.3241 59.906 46.17 59.74C49.54 59.74 52.69 59.14 55.47 57.9L56.69 58.72C59.44 60.59 60.94 61.61 61.23 61.7C62.48 62.4 63.73 62.95 65.03 63.33L68.25 57.19C65.7748 56.3218 63.4324 55.1135 61.29 53.6C61.97 52.81 62.57 52.02 63.11 51.21C63.9139 50.0024 64.5781 48.7074 65.09 47.35ZM45.89 12.48C49.0732 12.3352 52.2516 12.8563 55.2219 14.0099C58.1923 15.1636 60.8891 16.9245 63.14 19.18L63.16 19.2L63.18 19.23C67.55 23.79 69.61 30.05 69.61 37.61C69.61 41.61 69.03 45.21 67.92 48.35V48.37L67.9 48.4C67.3183 49.9386 66.567 51.4077 65.66 52.78C66.8099 53.4001 68.0069 53.9285 69.24 54.36L72.51 55.5L66.56 66.9L64.2 66.2C62.5816 65.7271 61.0268 65.0589 59.57 64.21C59.41 64.13 59.26 64.03 59.1 63.93L57.89 63.14L55.11 61.27C52.34 62.27 49.34 62.73 46.26 62.73C43.0099 62.9068 39.7586 62.4051 36.7131 61.2567C33.6675 60.1084 30.8943 58.3386 28.57 56.06L28.54 56.03L28.51 55.99C24.15 51.45 22.09 45.21 22.07 37.69C21.6835 30.9661 23.9654 24.3613 28.42 19.31L28.49 19.23L28.56 19.16C30.8302 16.9059 33.5434 15.1474 36.5282 13.9959C39.5129 12.8443 42.7041 12.3247 45.9 12.47L45.89 12.48ZM54.43 26.52C53.3582 25.3137 52.0312 24.3612 50.5454 23.7316C49.0596 23.102 47.4522 22.8111 45.84 22.88C44.2378 22.8201 42.6421 23.1153 41.1673 23.7446C39.6926 24.3739 38.3754 25.3217 37.31 26.52C35.13 29.02 34.04 32.72 34.04 37.62C34.04 42.62 35.14 46.37 37.31 48.87C38.0365 49.6966 38.8785 50.4141 39.81 51C40.97 51.72 42.25 52.2 43.63 52.42C45.4649 52.7462 47.353 52.5912 49.11 51.97C47.6269 51.0026 46.0568 50.1756 44.42 49.5L43.77 49.25L46.21 44.35C49.1433 45.3629 51.8975 46.8345 54.37 48.71C55.0189 47.9379 55.5635 47.0839 55.99 46.17C56.3238 45.4595 56.6013 44.7239 56.82 43.97C57.42 42.13 57.69 40.01 57.69 37.61C57.69 32.67 56.59 28.97 54.42 26.52H54.43ZM40.97 48.17C40.4541 47.7968 39.9812 47.3675 39.56 46.89C38.06 45.15 37.04 42.24 37.04 37.61C37.04 33.11 38.04 30.25 39.56 28.51C40.3312 27.6442 41.2842 26.9595 42.3508 26.5048C43.4174 26.0502 44.5713 25.8368 45.73 25.88H45.97C47.1362 25.8281 48.2993 26.0362 49.3751 26.4894C50.4509 26.9425 51.4125 27.6293 52.19 28.5C53.69 30.18 54.69 33.03 54.69 37.6C54.69 39.78 54.45 41.57 53.97 43.04L53.96 43.08L53.95 43.12C53.81 43.6 53.65 44.04 53.47 44.46C51.4916 43.2551 49.3896 42.2661 47.2 41.51L44.72 40.65L40.97 48.15V48.17Z" fill="#9199A1"/>
</g>
<defs>
<clipPath id="clip0_1_324">
<rect width="96" height="96" fill="white" transform="translate(0.0200195 0.5)"/>
</clipPath>
</defs>
</svg>
