<svg width="97" height="97" viewBox="0 0 97 97" fill="none" xmlns="http://www.w3.org/2000/svg">
<g clip-path="url(#clip0_1_337)">
<path opacity="0.2" d="M51.67 17.5C52.4579 17.5 53.2382 17.3448 53.9661 17.0433C54.6941 16.7417 55.3555 16.2998 55.9127 15.7426C56.4698 15.1855 56.9118 14.5241 57.2133 13.7961C57.5148 13.0681 57.67 12.2879 57.67 11.5C57.67 10.7121 57.5148 9.93185 57.2133 9.2039C56.9118 8.47595 56.4698 7.81451 55.9127 7.25736C55.3555 6.70021 54.6941 6.25825 53.9661 5.95672C53.2382 5.65519 52.4579 5.5 51.67 5.5C50.0787 5.5 48.5526 6.13214 47.4274 7.25736C46.3022 8.38258 45.67 9.9087 45.67 11.5C45.67 13.0913 46.3022 14.6174 47.4274 15.7426C48.5526 16.8679 50.0787 17.5 51.67 17.5ZM51.67 95.5C53.2613 95.5 54.7874 94.8679 55.9127 93.7426C57.0379 92.6174 57.67 91.0913 57.67 89.5C57.67 87.9087 57.0379 86.3826 55.9127 85.2574C54.7874 84.1321 53.2613 83.5 51.67 83.5C50.0787 83.5 48.5526 84.1321 47.4274 85.2574C46.3022 86.3826 45.67 87.9087 45.67 89.5C45.67 91.0913 46.3022 92.6174 47.4274 93.7426C48.5526 94.8679 50.0787 95.5 51.67 95.5ZM92.67 30.5C92.67 32.0913 92.0379 33.6174 90.9127 34.7426C89.7874 35.8679 88.2613 36.5 86.67 36.5C85.0787 36.5 83.5526 35.8679 82.4274 34.7426C81.3022 33.6174 80.67 32.0913 80.67 30.5C80.67 28.9087 81.3022 27.3826 82.4274 26.2574C83.5526 25.1321 85.0787 24.5 86.67 24.5C88.2613 24.5 89.7874 25.1321 90.9127 26.2574C92.0379 27.3826 92.67 28.9087 92.67 30.5ZM17.67 36.5C19.2613 36.5 20.7874 35.8679 21.9127 34.7426C23.0379 33.6174 23.67 32.0913 23.67 30.5C23.67 28.9087 23.0379 27.3826 21.9127 26.2574C20.7874 25.1321 19.2613 24.5 17.67 24.5C16.0787 24.5 14.5526 25.1321 13.4274 26.2574C12.3022 27.3826 11.67 28.9087 11.67 30.5C11.67 32.0913 12.3022 33.6174 13.4274 34.7426C14.5526 35.8679 16.0787 36.5 17.67 36.5ZM23.67 70.5C23.67 71.2879 23.5148 72.0682 23.2133 72.7961C22.9118 73.5241 22.4698 74.1855 21.9127 74.7426C21.3555 75.2998 20.6941 75.7417 19.9661 76.0433C19.2382 76.3448 18.4579 76.5 17.67 76.5C16.8821 76.5 16.1019 76.3448 15.3739 76.0433C14.646 75.7417 13.9845 75.2998 13.4274 74.7426C12.8702 74.1855 12.4283 73.5241 12.1267 72.7961C11.8252 72.0682 11.67 71.2879 11.67 70.5C11.67 68.9087 12.3022 67.3826 13.4274 66.2574C14.5526 65.1321 16.0787 64.5 17.67 64.5C19.2613 64.5 20.7874 65.1321 21.9127 66.2574C23.0379 67.3826 23.67 68.9087 23.67 70.5ZM51.67 56.5C52.4579 56.5 53.2382 56.3448 53.9661 56.0433C54.6941 55.7417 55.3555 55.2998 55.9127 54.7426C56.4698 54.1855 56.9118 53.5241 57.2133 52.7961C57.5148 52.0681 57.67 51.2879 57.67 50.5C57.67 49.7121 57.5148 48.9319 57.2133 48.2039C56.9118 47.4759 56.4698 46.8145 55.9127 46.2574C55.3555 45.7002 54.6941 45.2583 53.9661 44.9567C53.2382 44.6552 52.4579 44.5 51.67 44.5C50.0787 44.5 48.5526 45.1321 47.4274 46.2574C46.3022 47.3826 45.67 48.9087 45.67 50.5C45.67 52.0913 46.3022 53.6174 47.4274 54.7426C48.5526 55.8679 50.0787 56.5 51.67 56.5ZM92.67 70.5C92.67 72.0913 92.0379 73.6174 90.9127 74.7426C89.7874 75.8679 88.2613 76.5 86.67 76.5C85.0787 76.5 83.5526 75.8679 82.4274 74.7426C81.3022 73.6174 80.67 72.0913 80.67 70.5C80.67 68.9087 81.3022 67.3826 82.4274 66.2574C83.5526 65.1321 85.0787 64.5 86.67 64.5C88.2613 64.5 89.7874 65.1321 90.9127 66.2574C92.0379 67.3826 92.67 68.9087 92.67 70.5Z" fill="#9199A1"/>
<path d="M40.17 10.0001C40.121 7.8784 40.9168 5.82408 42.3824 4.28909C43.8479 2.7541 45.8633 1.86419 47.985 1.81513C50.1068 1.76606 52.1611 2.56186 53.6961 4.02746C55.231 5.49306 56.121 7.5084 56.17 9.63013L78.96 22.9301C79.8905 22.132 80.9921 21.5583 82.1795 21.2535C83.367 20.9487 84.6086 20.9209 85.8085 21.1722C87.0084 21.4235 88.1345 21.9472 89.0999 22.7029C90.0652 23.4586 90.8439 24.426 91.376 25.5305C91.908 26.635 92.1791 27.847 92.1682 29.0729C92.1574 30.2988 91.865 31.5058 91.3136 32.6007C90.7621 33.6957 89.9664 34.6492 88.9879 35.3877C88.0094 36.1263 86.8742 36.63 85.67 36.8601V60.1401C86.9317 60.3813 88.1168 60.9227 89.1251 61.7186C90.1334 62.5145 90.9352 63.5415 91.4627 64.7127C91.9902 65.884 92.2279 67.165 92.1557 68.4476C92.0835 69.7301 91.7035 70.9764 91.0479 72.081C90.3923 73.1856 89.4803 74.1162 88.389 74.7939C87.2978 75.4716 86.0594 75.8766 84.7786 75.9746C83.4978 76.0726 82.2123 75.8607 81.0306 75.3569C79.849 74.8531 78.8061 74.0722 77.99 73.0801L56.09 85.8801C56.2552 87.044 56.1618 88.2301 55.8165 89.3538C55.4712 90.4775 54.8825 91.5113 54.0922 92.3816C53.302 93.252 52.3297 93.9375 51.2444 94.3893C50.1592 94.8412 48.9876 95.0484 47.8132 94.996C46.6388 94.9437 45.4904 94.6332 44.4496 94.0866C43.4089 93.54 42.5013 92.7707 41.7917 91.8335C41.082 90.8964 40.5875 89.8143 40.3436 88.6643C40.0996 87.5144 40.112 86.3247 40.38 85.1801L20.85 73.4001C20.1235 74.5027 19.1354 75.4082 17.9738 76.0361C16.8122 76.6639 15.5133 76.9944 14.1929 76.9982C12.8725 77.002 11.5717 76.6789 10.4065 76.0578C9.24135 75.4366 8.24804 74.5367 7.5152 73.4384C6.78236 72.34 6.33278 71.0773 6.20657 69.763C6.08035 68.4486 6.28142 67.1235 6.79184 65.9057C7.30226 64.688 8.10616 63.6155 9.13183 62.784C10.1575 61.9524 11.373 61.3877 12.67 61.1401V35.8601C11.4276 35.6238 10.2589 35.0962 9.25989 34.3207C8.26084 33.5453 7.45988 32.544 6.92271 31.399C6.38554 30.2541 6.12747 28.9981 6.16968 27.7341C6.21189 26.4701 6.55317 25.2341 7.16552 24.1276C7.77787 23.021 8.64385 22.0754 9.69241 21.3683C10.741 20.6612 11.9422 20.2128 13.1976 20.0598C14.453 19.9069 15.7268 20.0537 16.9145 20.4883C18.1022 20.923 19.1699 21.633 20.03 22.5601L40.22 10.8901C40.1881 10.5945 40.1715 10.2975 40.17 10.0001ZM48.17 5.00013C46.8439 5.00013 45.5722 5.52691 44.6345 6.4646C43.6968 7.40228 43.17 8.67405 43.17 10.0001C43.17 11.3262 43.6968 12.598 44.6345 13.5357C45.5722 14.4733 46.8439 15.0001 48.17 15.0001C49.4961 15.0001 50.7679 14.4733 51.7056 13.5357C52.6432 12.598 53.17 11.3262 53.17 10.0001C53.17 8.67405 52.6432 7.40228 51.7056 6.4646C50.7679 5.52691 49.4961 5.00013 48.17 5.00013ZM21.77 66.5001H46.67V56.8601C44.6919 56.4852 42.928 55.3783 41.73 53.7601L21.27 65.3101C21.47 65.6801 21.64 66.0801 21.77 66.4901V66.5001ZM46.67 69.5001H22.15C22.1289 69.8696 22.0821 70.2371 22.01 70.6001L41.61 82.4101C42.8061 80.7024 44.6217 79.5291 46.67 79.1401V69.5001ZM49.67 69.5001V79.1401C50.7966 79.3558 51.8637 79.8112 52.7989 80.4754C53.7341 81.1397 54.5154 81.9973 55.09 82.9901L76.55 70.4501C76.45 70.1401 76.37 69.8201 76.31 69.5001H49.67ZM76.31 66.5001C76.41 66.0201 76.53 65.5601 76.71 65.1201L55.09 53.0201C54.5144 54.0111 53.7325 54.8667 52.7974 55.5292C51.8623 56.1918 50.7958 56.6456 49.67 56.8601V66.5001H76.31ZM78.29 62.5701L78.32 62.5501L78.34 62.5201L64.97 39.9001L55.29 45.3201C56.0582 46.8023 56.3415 48.4883 56.1 50.1401L78.3 62.5701H78.29ZM80.79 60.7501C81.3889 60.4695 82.0204 60.2646 82.67 60.1401V36.8601C81.5443 36.6456 80.4777 36.1918 79.5426 35.5292C78.6075 34.8667 77.8257 34.0111 77.25 33.0201L67.58 38.4301L80.78 60.7501H80.79ZM76.25 30.1401C76.0135 28.4808 76.3001 26.789 77.07 25.3001L55.67 12.8101C55.2958 13.802 54.7281 14.7096 54 15.4801L66.05 35.8501L76.25 30.1401ZM63.43 37.3201L51.55 17.2501C50.96 17.5301 50.33 17.7301 49.67 17.8601V41.1401C51.0463 41.404 52.3291 42.0247 53.39 42.9401L63.43 37.3201ZM46.67 17.8601L46.35 17.7901L34.87 37.3001L43.81 42.3001C44.6792 41.7339 45.6508 41.3432 46.67 41.1501V17.8601ZM43.6 16.5601C42.5803 15.8522 41.7383 14.9178 41.14 13.8301L21.63 25.1001C22.2422 26.6725 22.3403 28.3985 21.91 30.0301L32.24 35.8301L43.6 16.5601ZM30.72 38.4101L20.62 32.7501C19.4214 34.3741 17.6533 35.485 15.67 35.8601V61.1401C16.16 61.2401 16.63 61.3701 17.08 61.5401L30.72 38.4101ZM19.92 62.6401L40.43 51.0401C40.1385 49.9289 40.0894 48.7679 40.2861 47.6361C40.4828 46.5042 40.9207 45.4279 41.57 44.4801L33.34 39.8801L19.92 62.6301V62.6401ZM43.17 87.0001C43.17 88.3262 43.6968 89.598 44.6345 90.5357C45.5722 91.4733 46.8439 92.0001 48.17 92.0001C49.4961 92.0001 50.7679 91.4733 51.7056 90.5357C52.6432 89.598 53.17 88.3262 53.17 87.0001C53.17 85.674 52.6432 84.4023 51.7056 83.4646C50.7679 82.5269 49.4961 82.0001 48.17 82.0001C46.8439 82.0001 45.5722 82.5269 44.6345 83.4646C43.6968 84.4023 43.17 85.674 43.17 87.0001ZM84.17 63.0001C82.8439 63.0001 81.5722 63.5269 80.6345 64.4646C79.6968 65.4023 79.17 66.674 79.17 68.0001C79.17 69.3262 79.6968 70.598 80.6345 71.5357C81.5722 72.4733 82.8439 73.0001 84.17 73.0001C85.4961 73.0001 86.7679 72.4733 87.7056 71.5357C88.6432 70.598 89.17 69.3262 89.17 68.0001C89.17 66.674 88.6432 65.4023 87.7056 64.4646C86.7679 63.5269 85.4961 63.0001 84.17 63.0001ZM79.17 29.0001C79.17 29.6567 79.2993 30.3069 79.5506 30.9135C79.8019 31.5202 80.1702 32.0714 80.6345 32.5357C81.0988 33 81.65 33.3683 82.2566 33.6195C82.8632 33.8708 83.5134 34.0001 84.17 34.0001C84.8266 34.0001 85.4768 33.8708 86.0834 33.6195C86.6901 33.3683 87.2413 33 87.7056 32.5357C88.1699 32.0714 88.5381 31.5202 88.7894 30.9135C89.0407 30.3069 89.17 29.6567 89.17 29.0001C89.17 27.674 88.6432 26.4023 87.7056 25.4646C86.7679 24.5269 85.4961 24.0001 84.17 24.0001C82.8439 24.0001 81.5722 24.5269 80.6345 25.4646C79.6968 26.4023 79.17 27.674 79.17 29.0001ZM14.17 23.0001C12.8439 23.0001 11.5722 23.5269 10.6345 24.4646C9.69681 25.4023 9.17002 26.674 9.17002 28.0001C9.17002 29.3262 9.69681 30.598 10.6345 31.5357C11.5722 32.4733 12.8439 33.0001 14.17 33.0001C15.4961 33.0001 16.7679 32.4733 17.7056 31.5357C18.6432 30.598 19.17 29.3262 19.17 28.0001C19.17 26.674 18.6432 25.4023 17.7056 24.4646C16.7679 23.5269 15.4961 23.0001 14.17 23.0001ZM9.17002 69.0001C9.17002 70.3262 9.69681 71.598 10.6345 72.5357C11.5722 73.4733 12.8439 74.0001 14.17 74.0001C15.4961 74.0001 16.7679 73.4733 17.7056 72.5357C18.6432 71.598 19.17 70.3262 19.17 69.0001C19.17 67.674 18.6432 66.4023 17.7056 65.4646C16.7679 64.5269 15.4961 64.0001 14.17 64.0001C12.8439 64.0001 11.5722 64.5269 10.6345 65.4646C9.69681 66.4023 9.17002 67.674 9.17002 69.0001ZM48.17 44.0001C46.8439 44.0001 45.5722 44.5269 44.6345 45.4646C43.6968 46.4023 43.17 47.674 43.17 49.0001C43.17 50.3262 43.6968 51.598 44.6345 52.5357C45.5722 53.4733 46.8439 54.0001 48.17 54.0001C49.4961 54.0001 50.7679 53.4733 51.7056 52.5357C52.6432 51.598 53.17 50.3262 53.17 49.0001C53.17 47.674 52.6432 46.4023 51.7056 45.4646C50.7679 44.5269 49.4961 44.0001 48.17 44.0001Z" fill="#9199A1"/>
</g>
<defs>
<clipPath id="clip0_1_337">
<rect width="96" height="96" fill="white" transform="translate(0.670013 0.5)"/>
</clipPath>
</defs>
</svg>
